<?xml version="1.0" encoding="utf-8" standalone="no"?>
<!DOCTYPE svg PUBLIC "-//W3C//DTD SVG 1.1//EN"
  "http://www.w3.org/Graphics/SVG/1.1/DTD/svg11.dtd">
<!-- Created with matplotlib (http://matplotlib.org/) -->
<svg height="720pt" version="1.1" viewBox="0 0 1080 720" width="1080pt" xmlns="http://www.w3.org/2000/svg" xmlns:xlink="http://www.w3.org/1999/xlink">
 <defs>
  <style type="text/css">
*{stroke-linecap:butt;stroke-linejoin:round;}
  </style>
 </defs>
 <g id="figure_1">
  <g id="patch_1">
   <path d="M 0 720 
L 1080 720 
L 1080 0 
L 0 0 
z
" style="fill:#ffffff;"/>
  </g>
  <g id="axes_1">
   <g id="patch_2">
    <path d="M 135 630 
L 972 630 
L 972 86.4 
L 135 86.4 
z
" style="fill:#ffffff;"/>
   </g>
   <g id="text_1">
    <!-- Sir Joseph Norman Lockyer -->
    <defs>
     <path d="M 53.515625 70.515625 
L 53.515625 60.890625 
Q 47.90625 63.578125 42.921875 64.890625 
Q 37.9375 66.21875 33.296875 66.21875 
Q 25.25 66.21875 20.875 63.09375 
Q 16.5 59.96875 16.5 54.203125 
Q 16.5 49.359375 19.40625 46.890625 
Q 22.3125 44.4375 30.421875 42.921875 
L 36.375 41.703125 
Q 47.40625 39.59375 52.65625 34.296875 
Q 57.90625 29 57.90625 20.125 
Q 57.90625 9.515625 50.796875 4.046875 
Q 43.703125 -1.421875 29.984375 -1.421875 
Q 24.8125 -1.421875 18.96875 -0.25 
Q 13.140625 0.921875 6.890625 3.21875 
L 6.890625 13.375 
Q 12.890625 10.015625 18.65625 8.296875 
Q 24.421875 6.59375 29.984375 6.59375 
Q 38.421875 6.59375 43.015625 9.90625 
Q 47.609375 13.234375 47.609375 19.390625 
Q 47.609375 24.75 44.3125 27.78125 
Q 41.015625 30.8125 33.5 32.328125 
L 27.484375 33.5 
Q 16.453125 35.6875 11.515625 40.375 
Q 6.59375 45.0625 6.59375 53.421875 
Q 6.59375 63.09375 13.40625 68.65625 
Q 20.21875 74.21875 32.171875 74.21875 
Q 37.3125 74.21875 42.625 73.28125 
Q 47.953125 72.359375 53.515625 70.515625 
z
" id="DejaVuSans-53"/>
     <path d="M 9.421875 54.6875 
L 18.40625 54.6875 
L 18.40625 0 
L 9.421875 0 
z
M 9.421875 75.984375 
L 18.40625 75.984375 
L 18.40625 64.59375 
L 9.421875 64.59375 
z
" id="DejaVuSans-69"/>
     <path d="M 41.109375 46.296875 
Q 39.59375 47.171875 37.8125 47.578125 
Q 36.03125 48 33.890625 48 
Q 26.265625 48 22.1875 43.046875 
Q 18.109375 38.09375 18.109375 28.8125 
L 18.109375 0 
L 9.078125 0 
L 9.078125 54.6875 
L 18.109375 54.6875 
L 18.109375 46.1875 
Q 20.953125 51.171875 25.484375 53.578125 
Q 30.03125 56 36.53125 56 
Q 37.453125 56 38.578125 55.875 
Q 39.703125 55.765625 41.0625 55.515625 
z
" id="DejaVuSans-72"/>
     <path id="DejaVuSans-20"/>
     <path d="M 9.8125 72.90625 
L 19.671875 72.90625 
L 19.671875 5.078125 
Q 19.671875 -8.109375 14.671875 -14.0625 
Q 9.671875 -20.015625 -1.421875 -20.015625 
L -5.171875 -20.015625 
L -5.171875 -11.71875 
L -2.09375 -11.71875 
Q 4.4375 -11.71875 7.125 -8.046875 
Q 9.8125 -4.390625 9.8125 5.078125 
z
" id="DejaVuSans-4a"/>
     <path d="M 30.609375 48.390625 
Q 23.390625 48.390625 19.1875 42.75 
Q 14.984375 37.109375 14.984375 27.296875 
Q 14.984375 17.484375 19.15625 11.84375 
Q 23.34375 6.203125 30.609375 6.203125 
Q 37.796875 6.203125 41.984375 11.859375 
Q 46.1875 17.53125 46.1875 27.296875 
Q 46.1875 37.015625 41.984375 42.703125 
Q 37.796875 48.390625 30.609375 48.390625 
z
M 30.609375 56 
Q 42.328125 56 49.015625 48.375 
Q 55.71875 40.765625 55.71875 27.296875 
Q 55.71875 13.875 49.015625 6.21875 
Q 42.328125 -1.421875 30.609375 -1.421875 
Q 18.84375 -1.421875 12.171875 6.21875 
Q 5.515625 13.875 5.515625 27.296875 
Q 5.515625 40.765625 12.171875 48.375 
Q 18.84375 56 30.609375 56 
z
" id="DejaVuSans-6f"/>
     <path d="M 44.28125 53.078125 
L 44.28125 44.578125 
Q 40.484375 46.53125 36.375 47.5 
Q 32.28125 48.484375 27.875 48.484375 
Q 21.1875 48.484375 17.84375 46.4375 
Q 14.5 44.390625 14.5 40.28125 
Q 14.5 37.15625 16.890625 35.375 
Q 19.28125 33.59375 26.515625 31.984375 
L 29.59375 31.296875 
Q 39.15625 29.25 43.1875 25.515625 
Q 47.21875 21.78125 47.21875 15.09375 
Q 47.21875 7.46875 41.1875 3.015625 
Q 35.15625 -1.421875 24.609375 -1.421875 
Q 20.21875 -1.421875 15.453125 -0.5625 
Q 10.6875 0.296875 5.421875 2 
L 5.421875 11.28125 
Q 10.40625 8.6875 15.234375 7.390625 
Q 20.0625 6.109375 24.8125 6.109375 
Q 31.15625 6.109375 34.5625 8.28125 
Q 37.984375 10.453125 37.984375 14.40625 
Q 37.984375 18.0625 35.515625 20.015625 
Q 33.0625 21.96875 24.703125 23.78125 
L 21.578125 24.515625 
Q 13.234375 26.265625 9.515625 29.90625 
Q 5.8125 33.546875 5.8125 39.890625 
Q 5.8125 47.609375 11.28125 51.796875 
Q 16.75 56 26.8125 56 
Q 31.78125 56 36.171875 55.265625 
Q 40.578125 54.546875 44.28125 53.078125 
z
" id="DejaVuSans-73"/>
     <path d="M 56.203125 29.59375 
L 56.203125 25.203125 
L 14.890625 25.203125 
Q 15.484375 15.921875 20.484375 11.0625 
Q 25.484375 6.203125 34.421875 6.203125 
Q 39.59375 6.203125 44.453125 7.46875 
Q 49.3125 8.734375 54.109375 11.28125 
L 54.109375 2.78125 
Q 49.265625 0.734375 44.1875 -0.34375 
Q 39.109375 -1.421875 33.890625 -1.421875 
Q 20.796875 -1.421875 13.15625 6.1875 
Q 5.515625 13.8125 5.515625 26.8125 
Q 5.515625 40.234375 12.765625 48.109375 
Q 20.015625 56 32.328125 56 
Q 43.359375 56 49.78125 48.890625 
Q 56.203125 41.796875 56.203125 29.59375 
z
M 47.21875 32.234375 
Q 47.125 39.59375 43.09375 43.984375 
Q 39.0625 48.390625 32.421875 48.390625 
Q 24.90625 48.390625 20.390625 44.140625 
Q 15.875 39.890625 15.1875 32.171875 
z
" id="DejaVuSans-65"/>
     <path d="M 18.109375 8.203125 
L 18.109375 -20.796875 
L 9.078125 -20.796875 
L 9.078125 54.6875 
L 18.109375 54.6875 
L 18.109375 46.390625 
Q 20.953125 51.265625 25.265625 53.625 
Q 29.59375 56 35.59375 56 
Q 45.5625 56 51.78125 48.09375 
Q 58.015625 40.1875 58.015625 27.296875 
Q 58.015625 14.40625 51.78125 6.484375 
Q 45.5625 -1.421875 35.59375 -1.421875 
Q 29.59375 -1.421875 25.265625 0.953125 
Q 20.953125 3.328125 18.109375 8.203125 
z
M 48.6875 27.296875 
Q 48.6875 37.203125 44.609375 42.84375 
Q 40.53125 48.484375 33.40625 48.484375 
Q 26.265625 48.484375 22.1875 42.84375 
Q 18.109375 37.203125 18.109375 27.296875 
Q 18.109375 17.390625 22.1875 11.75 
Q 26.265625 6.109375 33.40625 6.109375 
Q 40.53125 6.109375 44.609375 11.75 
Q 48.6875 17.390625 48.6875 27.296875 
z
" id="DejaVuSans-70"/>
     <path d="M 54.890625 33.015625 
L 54.890625 0 
L 45.90625 0 
L 45.90625 32.71875 
Q 45.90625 40.484375 42.875 44.328125 
Q 39.84375 48.1875 33.796875 48.1875 
Q 26.515625 48.1875 22.3125 43.546875 
Q 18.109375 38.921875 18.109375 30.90625 
L 18.109375 0 
L 9.078125 0 
L 9.078125 75.984375 
L 18.109375 75.984375 
L 18.109375 46.1875 
Q 21.34375 51.125 25.703125 53.5625 
Q 30.078125 56 35.796875 56 
Q 45.21875 56 50.046875 50.171875 
Q 54.890625 44.34375 54.890625 33.015625 
z
" id="DejaVuSans-68"/>
     <path d="M 9.8125 72.90625 
L 23.09375 72.90625 
L 55.421875 11.921875 
L 55.421875 72.90625 
L 64.984375 72.90625 
L 64.984375 0 
L 51.703125 0 
L 19.390625 60.984375 
L 19.390625 0 
L 9.8125 0 
z
" id="DejaVuSans-4e"/>
     <path d="M 52 44.1875 
Q 55.375 50.25 60.0625 53.125 
Q 64.75 56 71.09375 56 
Q 79.640625 56 84.28125 50.015625 
Q 88.921875 44.046875 88.921875 33.015625 
L 88.921875 0 
L 79.890625 0 
L 79.890625 32.71875 
Q 79.890625 40.578125 77.09375 44.375 
Q 74.3125 48.1875 68.609375 48.1875 
Q 61.625 48.1875 57.5625 43.546875 
Q 53.515625 38.921875 53.515625 30.90625 
L 53.515625 0 
L 44.484375 0 
L 44.484375 32.71875 
Q 44.484375 40.625 41.703125 44.40625 
Q 38.921875 48.1875 33.109375 48.1875 
Q 26.21875 48.1875 22.15625 43.53125 
Q 18.109375 38.875 18.109375 30.90625 
L 18.109375 0 
L 9.078125 0 
L 9.078125 54.6875 
L 18.109375 54.6875 
L 18.109375 46.1875 
Q 21.1875 51.21875 25.484375 53.609375 
Q 29.78125 56 35.6875 56 
Q 41.65625 56 45.828125 52.96875 
Q 50 49.953125 52 44.1875 
z
" id="DejaVuSans-6d"/>
     <path d="M 34.28125 27.484375 
Q 23.390625 27.484375 19.1875 25 
Q 14.984375 22.515625 14.984375 16.5 
Q 14.984375 11.71875 18.140625 8.90625 
Q 21.296875 6.109375 26.703125 6.109375 
Q 34.1875 6.109375 38.703125 11.40625 
Q 43.21875 16.703125 43.21875 25.484375 
L 43.21875 27.484375 
z
M 52.203125 31.203125 
L 52.203125 0 
L 43.21875 0 
L 43.21875 8.296875 
Q 40.140625 3.328125 35.546875 0.953125 
Q 30.953125 -1.421875 24.3125 -1.421875 
Q 15.921875 -1.421875 10.953125 3.296875 
Q 6 8.015625 6 15.921875 
Q 6 25.140625 12.171875 29.828125 
Q 18.359375 34.515625 30.609375 34.515625 
L 43.21875 34.515625 
L 43.21875 35.40625 
Q 43.21875 41.609375 39.140625 45 
Q 35.0625 48.390625 27.6875 48.390625 
Q 23 48.390625 18.546875 47.265625 
Q 14.109375 46.140625 10.015625 43.890625 
L 10.015625 52.203125 
Q 14.9375 54.109375 19.578125 55.046875 
Q 24.21875 56 28.609375 56 
Q 40.484375 56 46.34375 49.84375 
Q 52.203125 43.703125 52.203125 31.203125 
z
" id="DejaVuSans-61"/>
     <path d="M 54.890625 33.015625 
L 54.890625 0 
L 45.90625 0 
L 45.90625 32.71875 
Q 45.90625 40.484375 42.875 44.328125 
Q 39.84375 48.1875 33.796875 48.1875 
Q 26.515625 48.1875 22.3125 43.546875 
Q 18.109375 38.921875 18.109375 30.90625 
L 18.109375 0 
L 9.078125 0 
L 9.078125 54.6875 
L 18.109375 54.6875 
L 18.109375 46.1875 
Q 21.34375 51.125 25.703125 53.5625 
Q 30.078125 56 35.796875 56 
Q 45.21875 56 50.046875 50.171875 
Q 54.890625 44.34375 54.890625 33.015625 
z
" id="DejaVuSans-6e"/>
     <path d="M 9.8125 72.90625 
L 19.671875 72.90625 
L 19.671875 8.296875 
L 55.171875 8.296875 
L 55.171875 0 
L 9.8125 0 
z
" id="DejaVuSans-4c"/>
     <path d="M 48.78125 52.59375 
L 48.78125 44.1875 
Q 44.96875 46.296875 41.140625 47.34375 
Q 37.3125 48.390625 33.40625 48.390625 
Q 24.65625 48.390625 19.8125 42.84375 
Q 14.984375 37.3125 14.984375 27.296875 
Q 14.984375 17.28125 19.8125 11.734375 
Q 24.65625 6.203125 33.40625 6.203125 
Q 37.3125 6.203125 41.140625 7.25 
Q 44.96875 8.296875 48.78125 10.40625 
L 48.78125 2.09375 
Q 45.015625 0.34375 40.984375 -0.53125 
Q 36.96875 -1.421875 32.421875 -1.421875 
Q 20.0625 -1.421875 12.78125 6.34375 
Q 5.515625 14.109375 5.515625 27.296875 
Q 5.515625 40.671875 12.859375 48.328125 
Q 20.21875 56 33.015625 56 
Q 37.15625 56 41.109375 55.140625 
Q 45.0625 54.296875 48.78125 52.59375 
z
" id="DejaVuSans-63"/>
     <path d="M 9.078125 75.984375 
L 18.109375 75.984375 
L 18.109375 31.109375 
L 44.921875 54.6875 
L 56.390625 54.6875 
L 27.390625 29.109375 
L 57.625 0 
L 45.90625 0 
L 18.109375 26.703125 
L 18.109375 0 
L 9.078125 0 
z
" id="DejaVuSans-6b"/>
     <path d="M 32.171875 -5.078125 
Q 28.375 -14.84375 24.75 -17.8125 
Q 21.140625 -20.796875 15.09375 -20.796875 
L 7.90625 -20.796875 
L 7.90625 -13.28125 
L 13.1875 -13.28125 
Q 16.890625 -13.28125 18.9375 -11.515625 
Q 21 -9.765625 23.484375 -3.21875 
L 25.09375 0.875 
L 2.984375 54.6875 
L 12.5 54.6875 
L 29.59375 11.921875 
L 46.6875 54.6875 
L 56.203125 54.6875 
z
" id="DejaVuSans-79"/>
    </defs>
    <g style="opacity:0.6;" transform="translate(214.811366 303.480681)rotate(-90)scale(0.14 -0.14)">
     <use xlink:href="#DejaVuSans-53"/>
     <use x="63.476562" xlink:href="#DejaVuSans-69"/>
     <use x="91.259766" xlink:href="#DejaVuSans-72"/>
     <use x="132.373047" xlink:href="#DejaVuSans-20"/>
     <use x="164.160156" xlink:href="#DejaVuSans-4a"/>
     <use x="193.652344" xlink:href="#DejaVuSans-6f"/>
     <use x="254.833984" xlink:href="#DejaVuSans-73"/>
     <use x="306.933594" xlink:href="#DejaVuSans-65"/>
     <use x="368.457031" xlink:href="#DejaVuSans-70"/>
     <use x="431.933594" xlink:href="#DejaVuSans-68"/>
     <use x="495.3125" xlink:href="#DejaVuSans-20"/>
     <use x="527.099609" xlink:href="#DejaVuSans-4e"/>
     <use x="601.904297" xlink:href="#DejaVuSans-6f"/>
     <use x="663.085938" xlink:href="#DejaVuSans-72"/>
     <use x="704.183594" xlink:href="#DejaVuSans-6d"/>
     <use x="801.595703" xlink:href="#DejaVuSans-61"/>
     <use x="862.875" xlink:href="#DejaVuSans-6e"/>
     <use x="926.253906" xlink:href="#DejaVuSans-20"/>
     <use x="958.041016" xlink:href="#DejaVuSans-4c"/>
     <use x="1013.738281" xlink:href="#DejaVuSans-6f"/>
     <use x="1074.919922" xlink:href="#DejaVuSans-63"/>
     <use x="1129.900391" xlink:href="#DejaVuSans-6b"/>
     <use x="1187.763672" xlink:href="#DejaVuSans-79"/>
     <use x="1246.943359" xlink:href="#DejaVuSans-65"/>
     <use x="1308.466797" xlink:href="#DejaVuSans-72"/>
    </g>
   </g>
   <g id="text_2">
    <!-- Sir Richard Arman Gregory -->
    <defs>
     <path d="M 44.390625 34.1875 
Q 47.5625 33.109375 50.5625 29.59375 
Q 53.5625 26.078125 56.59375 19.921875 
L 66.609375 0 
L 56 0 
L 46.6875 18.703125 
Q 43.0625 26.03125 39.671875 28.421875 
Q 36.28125 30.8125 30.421875 30.8125 
L 19.671875 30.8125 
L 19.671875 0 
L 9.8125 0 
L 9.8125 72.90625 
L 32.078125 72.90625 
Q 44.578125 72.90625 50.734375 67.671875 
Q 56.890625 62.453125 56.890625 51.90625 
Q 56.890625 45.015625 53.6875 40.46875 
Q 50.484375 35.9375 44.390625 34.1875 
z
M 19.671875 64.796875 
L 19.671875 38.921875 
L 32.078125 38.921875 
Q 39.203125 38.921875 42.84375 42.21875 
Q 46.484375 45.515625 46.484375 51.90625 
Q 46.484375 58.296875 42.84375 61.546875 
Q 39.203125 64.796875 32.078125 64.796875 
z
" id="DejaVuSans-52"/>
     <path d="M 45.40625 46.390625 
L 45.40625 75.984375 
L 54.390625 75.984375 
L 54.390625 0 
L 45.40625 0 
L 45.40625 8.203125 
Q 42.578125 3.328125 38.25 0.953125 
Q 33.9375 -1.421875 27.875 -1.421875 
Q 17.96875 -1.421875 11.734375 6.484375 
Q 5.515625 14.40625 5.515625 27.296875 
Q 5.515625 40.1875 11.734375 48.09375 
Q 17.96875 56 27.875 56 
Q 33.9375 56 38.25 53.625 
Q 42.578125 51.265625 45.40625 46.390625 
z
M 14.796875 27.296875 
Q 14.796875 17.390625 18.875 11.75 
Q 22.953125 6.109375 30.078125 6.109375 
Q 37.203125 6.109375 41.296875 11.75 
Q 45.40625 17.390625 45.40625 27.296875 
Q 45.40625 37.203125 41.296875 42.84375 
Q 37.203125 48.484375 30.078125 48.484375 
Q 22.953125 48.484375 18.875 42.84375 
Q 14.796875 37.203125 14.796875 27.296875 
z
" id="DejaVuSans-64"/>
     <path d="M 34.1875 63.1875 
L 20.796875 26.90625 
L 47.609375 26.90625 
z
M 28.609375 72.90625 
L 39.796875 72.90625 
L 67.578125 0 
L 57.328125 0 
L 50.6875 18.703125 
L 17.828125 18.703125 
L 11.1875 0 
L 0.78125 0 
z
" id="DejaVuSans-41"/>
     <path d="M 59.515625 10.40625 
L 59.515625 29.984375 
L 43.40625 29.984375 
L 43.40625 38.09375 
L 69.28125 38.09375 
L 69.28125 6.78125 
Q 63.578125 2.734375 56.6875 0.65625 
Q 49.8125 -1.421875 42 -1.421875 
Q 24.90625 -1.421875 15.25 8.5625 
Q 5.609375 18.5625 5.609375 36.375 
Q 5.609375 54.25 15.25 64.234375 
Q 24.90625 74.21875 42 74.21875 
Q 49.125 74.21875 55.546875 72.453125 
Q 61.96875 70.703125 67.390625 67.28125 
L 67.390625 56.78125 
Q 61.921875 61.421875 55.765625 63.765625 
Q 49.609375 66.109375 42.828125 66.109375 
Q 29.4375 66.109375 22.71875 58.640625 
Q 16.015625 51.171875 16.015625 36.375 
Q 16.015625 21.625 22.71875 14.15625 
Q 29.4375 6.6875 42.828125 6.6875 
Q 48.046875 6.6875 52.140625 7.59375 
Q 56.25 8.5 59.515625 10.40625 
z
" id="DejaVuSans-47"/>
     <path d="M 45.40625 27.984375 
Q 45.40625 37.75 41.375 43.109375 
Q 37.359375 48.484375 30.078125 48.484375 
Q 22.859375 48.484375 18.828125 43.109375 
Q 14.796875 37.75 14.796875 27.984375 
Q 14.796875 18.265625 18.828125 12.890625 
Q 22.859375 7.515625 30.078125 7.515625 
Q 37.359375 7.515625 41.375 12.890625 
Q 45.40625 18.265625 45.40625 27.984375 
z
M 54.390625 6.78125 
Q 54.390625 -7.171875 48.1875 -13.984375 
Q 42 -20.796875 29.203125 -20.796875 
Q 24.46875 -20.796875 20.265625 -20.09375 
Q 16.0625 -19.390625 12.109375 -17.921875 
L 12.109375 -9.1875 
Q 16.0625 -11.328125 19.921875 -12.34375 
Q 23.78125 -13.375 27.78125 -13.375 
Q 36.625 -13.375 41.015625 -8.765625 
Q 45.40625 -4.15625 45.40625 5.171875 
L 45.40625 9.625 
Q 42.625 4.78125 38.28125 2.390625 
Q 33.9375 0 27.875 0 
Q 17.828125 0 11.671875 7.65625 
Q 5.515625 15.328125 5.515625 27.984375 
Q 5.515625 40.671875 11.671875 48.328125 
Q 17.828125 56 27.875 56 
Q 33.9375 56 38.28125 53.609375 
Q 42.625 51.21875 45.40625 46.390625 
L 45.40625 54.6875 
L 54.390625 54.6875 
z
" id="DejaVuSans-67"/>
    </defs>
    <g style="opacity:0.6;" transform="translate(339.323763 302.951306)rotate(-90)scale(0.14 -0.14)">
     <use xlink:href="#DejaVuSans-53"/>
     <use x="63.476562" xlink:href="#DejaVuSans-69"/>
     <use x="91.259766" xlink:href="#DejaVuSans-72"/>
     <use x="132.373047" xlink:href="#DejaVuSans-20"/>
     <use x="164.160156" xlink:href="#DejaVuSans-52"/>
     <use x="233.642578" xlink:href="#DejaVuSans-69"/>
     <use x="261.425781" xlink:href="#DejaVuSans-63"/>
     <use x="316.40625" xlink:href="#DejaVuSans-68"/>
     <use x="379.785156" xlink:href="#DejaVuSans-61"/>
     <use x="441.064453" xlink:href="#DejaVuSans-72"/>
     <use x="482.162109" xlink:href="#DejaVuSans-64"/>
     <use x="545.638672" xlink:href="#DejaVuSans-20"/>
     <use x="577.425781" xlink:href="#DejaVuSans-41"/>
     <use x="645.833984" xlink:href="#DejaVuSans-72"/>
     <use x="686.931641" xlink:href="#DejaVuSans-6d"/>
     <use x="784.34375" xlink:href="#DejaVuSans-61"/>
     <use x="845.623047" xlink:href="#DejaVuSans-6e"/>
     <use x="909.001953" xlink:href="#DejaVuSans-20"/>
     <use x="940.789062" xlink:href="#DejaVuSans-47"/>
     <use x="1018.279297" xlink:href="#DejaVuSans-72"/>
     <use x="1059.361328" xlink:href="#DejaVuSans-65"/>
     <use x="1120.884766" xlink:href="#DejaVuSans-67"/>
     <use x="1184.361328" xlink:href="#DejaVuSans-6f"/>
     <use x="1245.542969" xlink:href="#DejaVuSans-72"/>
     <use x="1286.65625" xlink:href="#DejaVuSans-79"/>
    </g>
   </g>
   <g id="text_3">
    <!-- L. J. F. Brimble -->
    <defs>
     <path d="M 10.6875 12.40625 
L 21 12.40625 
L 21 0 
L 10.6875 0 
z
" id="DejaVuSans-2e"/>
     <path d="M 9.8125 72.90625 
L 51.703125 72.90625 
L 51.703125 64.59375 
L 19.671875 64.59375 
L 19.671875 43.109375 
L 48.578125 43.109375 
L 48.578125 34.8125 
L 19.671875 34.8125 
L 19.671875 0 
L 9.8125 0 
z
" id="DejaVuSans-46"/>
     <path d="M 19.671875 34.8125 
L 19.671875 8.109375 
L 35.5 8.109375 
Q 43.453125 8.109375 47.28125 11.40625 
Q 51.125 14.703125 51.125 21.484375 
Q 51.125 28.328125 47.28125 31.5625 
Q 43.453125 34.8125 35.5 34.8125 
z
M 19.671875 64.796875 
L 19.671875 42.828125 
L 34.28125 42.828125 
Q 41.5 42.828125 45.03125 45.53125 
Q 48.578125 48.25 48.578125 53.8125 
Q 48.578125 59.328125 45.03125 62.0625 
Q 41.5 64.796875 34.28125 64.796875 
z
M 9.8125 72.90625 
L 35.015625 72.90625 
Q 46.296875 72.90625 52.390625 68.21875 
Q 58.5 63.53125 58.5 54.890625 
Q 58.5 48.1875 55.375 44.234375 
Q 52.25 40.28125 46.1875 39.3125 
Q 53.46875 37.75 57.5 32.78125 
Q 61.53125 27.828125 61.53125 20.40625 
Q 61.53125 10.640625 54.890625 5.3125 
Q 48.25 0 35.984375 0 
L 9.8125 0 
z
" id="DejaVuSans-42"/>
     <path d="M 48.6875 27.296875 
Q 48.6875 37.203125 44.609375 42.84375 
Q 40.53125 48.484375 33.40625 48.484375 
Q 26.265625 48.484375 22.1875 42.84375 
Q 18.109375 37.203125 18.109375 27.296875 
Q 18.109375 17.390625 22.1875 11.75 
Q 26.265625 6.109375 33.40625 6.109375 
Q 40.53125 6.109375 44.609375 11.75 
Q 48.6875 17.390625 48.6875 27.296875 
z
M 18.109375 46.390625 
Q 20.953125 51.265625 25.265625 53.625 
Q 29.59375 56 35.59375 56 
Q 45.5625 56 51.78125 48.09375 
Q 58.015625 40.1875 58.015625 27.296875 
Q 58.015625 14.40625 51.78125 6.484375 
Q 45.5625 -1.421875 35.59375 -1.421875 
Q 29.59375 -1.421875 25.265625 0.953125 
Q 20.953125 3.328125 18.109375 8.203125 
L 18.109375 0 
L 9.078125 0 
L 9.078125 75.984375 
L 18.109375 75.984375 
z
" id="DejaVuSans-62"/>
     <path d="M 9.421875 75.984375 
L 18.40625 75.984375 
L 18.40625 0 
L 9.421875 0 
z
" id="DejaVuSans-6c"/>
    </defs>
    <g style="opacity:0.6;" transform="translate(505.340292 215.457869)rotate(-90)scale(0.14 -0.14)">
     <use xlink:href="#DejaVuSans-4c"/>
     <use x="55.712891" xlink:href="#DejaVuSans-2e"/>
     <use x="87.5" xlink:href="#DejaVuSans-20"/>
     <use x="119.287109" xlink:href="#DejaVuSans-4a"/>
     <use x="148.779297" xlink:href="#DejaVuSans-2e"/>
     <use x="180.566406" xlink:href="#DejaVuSans-20"/>
     <use x="212.353516" xlink:href="#DejaVuSans-46"/>
     <use x="269.623047" xlink:href="#DejaVuSans-2e"/>
     <use x="301.410156" xlink:href="#DejaVuSans-20"/>
     <use x="333.197266" xlink:href="#DejaVuSans-42"/>
     <use x="401.800781" xlink:href="#DejaVuSans-72"/>
     <use x="442.914062" xlink:href="#DejaVuSans-69"/>
     <use x="470.697266" xlink:href="#DejaVuSans-6d"/>
     <use x="568.109375" xlink:href="#DejaVuSans-62"/>
     <use x="631.585938" xlink:href="#DejaVuSans-6c"/>
     <use x="659.369141" xlink:href="#DejaVuSans-65"/>
    </g>
   </g>
   <g id="text_4">
    <!-- A. J. V. Gale -->
    <defs>
     <path d="M 28.609375 0 
L 0.78125 72.90625 
L 11.078125 72.90625 
L 34.1875 11.53125 
L 57.328125 72.90625 
L 67.578125 72.90625 
L 39.796875 0 
z
" id="DejaVuSans-56"/>
    </defs>
    <g style="opacity:0.6;" transform="translate(484.588226 196.417869)rotate(-90)scale(0.14 -0.14)">
     <use xlink:href="#DejaVuSans-41"/>
     <use x="68.392578" xlink:href="#DejaVuSans-2e"/>
     <use x="100.179688" xlink:href="#DejaVuSans-20"/>
     <use x="131.966797" xlink:href="#DejaVuSans-4a"/>
     <use x="161.458984" xlink:href="#DejaVuSans-2e"/>
     <use x="193.246094" xlink:href="#DejaVuSans-20"/>
     <use x="225.033203" xlink:href="#DejaVuSans-56"/>
     <use x="293.253906" xlink:href="#DejaVuSans-2e"/>
     <use x="325.041016" xlink:href="#DejaVuSans-20"/>
     <use x="356.828125" xlink:href="#DejaVuSans-47"/>
     <use x="434.318359" xlink:href="#DejaVuSans-61"/>
     <use x="495.597656" xlink:href="#DejaVuSans-6c"/>
     <use x="523.380859" xlink:href="#DejaVuSans-65"/>
    </g>
   </g>
   <g id="text_5">
    <!-- Sir John Royden Maddox -->
    <defs>
     <path d="M 9.8125 72.90625 
L 24.515625 72.90625 
L 43.109375 23.296875 
L 61.8125 72.90625 
L 76.515625 72.90625 
L 76.515625 0 
L 66.890625 0 
L 66.890625 64.015625 
L 48.09375 14.015625 
L 38.1875 14.015625 
L 19.390625 64.015625 
L 19.390625 0 
L 9.8125 0 
z
" id="DejaVuSans-4d"/>
     <path d="M 54.890625 54.6875 
L 35.109375 28.078125 
L 55.90625 0 
L 45.3125 0 
L 29.390625 21.484375 
L 13.484375 0 
L 2.875 0 
L 24.125 28.609375 
L 4.6875 54.6875 
L 15.28125 54.6875 
L 29.78125 35.203125 
L 44.28125 54.6875 
z
" id="DejaVuSans-78"/>
    </defs>
    <g style="opacity:0.6;" transform="translate(622.935333 285.083806)rotate(-90)scale(0.14 -0.14)">
     <use xlink:href="#DejaVuSans-53"/>
     <use x="63.476562" xlink:href="#DejaVuSans-69"/>
     <use x="91.259766" xlink:href="#DejaVuSans-72"/>
     <use x="132.373047" xlink:href="#DejaVuSans-20"/>
     <use x="164.160156" xlink:href="#DejaVuSans-4a"/>
     <use x="193.652344" xlink:href="#DejaVuSans-6f"/>
     <use x="254.833984" xlink:href="#DejaVuSans-68"/>
     <use x="318.212891" xlink:href="#DejaVuSans-6e"/>
     <use x="381.591797" xlink:href="#DejaVuSans-20"/>
     <use x="413.378906" xlink:href="#DejaVuSans-52"/>
     <use x="482.798828" xlink:href="#DejaVuSans-6f"/>
     <use x="543.980469" xlink:href="#DejaVuSans-79"/>
     <use x="603.160156" xlink:href="#DejaVuSans-64"/>
     <use x="666.636719" xlink:href="#DejaVuSans-65"/>
     <use x="728.160156" xlink:href="#DejaVuSans-6e"/>
     <use x="791.539062" xlink:href="#DejaVuSans-20"/>
     <use x="823.326172" xlink:href="#DejaVuSans-4d"/>
     <use x="909.605469" xlink:href="#DejaVuSans-61"/>
     <use x="970.884766" xlink:href="#DejaVuSans-64"/>
     <use x="1034.361328" xlink:href="#DejaVuSans-64"/>
     <use x="1097.837891" xlink:href="#DejaVuSans-6f"/>
     <use x="1158.972656" xlink:href="#DejaVuSans-78"/>
    </g>
   </g>
   <g id="text_6">
    <!-- Sir John Royden Maddox -->
    <g style="opacity:0.6;" transform="translate(747.44773 285.083806)rotate(-90)scale(0.14 -0.14)">
     <use xlink:href="#DejaVuSans-53"/>
     <use x="63.476562" xlink:href="#DejaVuSans-69"/>
     <use x="91.259766" xlink:href="#DejaVuSans-72"/>
     <use x="132.373047" xlink:href="#DejaVuSans-20"/>
     <use x="164.160156" xlink:href="#DejaVuSans-4a"/>
     <use x="193.652344" xlink:href="#DejaVuSans-6f"/>
     <use x="254.833984" xlink:href="#DejaVuSans-68"/>
     <use x="318.212891" xlink:href="#DejaVuSans-6e"/>
     <use x="381.591797" xlink:href="#DejaVuSans-20"/>
     <use x="413.378906" xlink:href="#DejaVuSans-52"/>
     <use x="482.798828" xlink:href="#DejaVuSans-6f"/>
     <use x="543.980469" xlink:href="#DejaVuSans-79"/>
     <use x="603.160156" xlink:href="#DejaVuSans-64"/>
     <use x="666.636719" xlink:href="#DejaVuSans-65"/>
     <use x="728.160156" xlink:href="#DejaVuSans-6e"/>
     <use x="791.539062" xlink:href="#DejaVuSans-20"/>
     <use x="823.326172" xlink:href="#DejaVuSans-4d"/>
     <use x="909.605469" xlink:href="#DejaVuSans-61"/>
     <use x="970.884766" xlink:href="#DejaVuSans-64"/>
     <use x="1034.361328" xlink:href="#DejaVuSans-64"/>
     <use x="1097.837891" xlink:href="#DejaVuSans-6f"/>
     <use x="1158.972656" xlink:href="#DejaVuSans-78"/>
    </g>
   </g>
   <g id="text_7">
    <!-- David Dai Davies -->
    <defs>
     <path d="M 19.671875 64.796875 
L 19.671875 8.109375 
L 31.59375 8.109375 
Q 46.6875 8.109375 53.6875 14.9375 
Q 60.6875 21.78125 60.6875 36.53125 
Q 60.6875 51.171875 53.6875 57.984375 
Q 46.6875 64.796875 31.59375 64.796875 
z
M 9.8125 72.90625 
L 30.078125 72.90625 
Q 51.265625 72.90625 61.171875 64.09375 
Q 71.09375 55.28125 71.09375 36.53125 
Q 71.09375 17.671875 61.125 8.828125 
Q 51.171875 0 30.078125 0 
L 9.8125 0 
z
" id="DejaVuSans-44"/>
     <path d="M 2.984375 54.6875 
L 12.5 54.6875 
L 29.59375 8.796875 
L 46.6875 54.6875 
L 56.203125 54.6875 
L 35.6875 0 
L 23.484375 0 
z
" id="DejaVuSans-76"/>
    </defs>
    <g style="opacity:0.6;" transform="translate(671.356821 234.548181)rotate(-90)scale(0.14 -0.14)">
     <use xlink:href="#DejaVuSans-44"/>
     <use x="77.001953" xlink:href="#DejaVuSans-61"/>
     <use x="138.28125" xlink:href="#DejaVuSans-76"/>
     <use x="197.460938" xlink:href="#DejaVuSans-69"/>
     <use x="225.244141" xlink:href="#DejaVuSans-64"/>
     <use x="288.720703" xlink:href="#DejaVuSans-20"/>
     <use x="320.507812" xlink:href="#DejaVuSans-44"/>
     <use x="397.509766" xlink:href="#DejaVuSans-61"/>
     <use x="458.789062" xlink:href="#DejaVuSans-69"/>
     <use x="486.572266" xlink:href="#DejaVuSans-20"/>
     <use x="518.359375" xlink:href="#DejaVuSans-44"/>
     <use x="595.361328" xlink:href="#DejaVuSans-61"/>
     <use x="656.640625" xlink:href="#DejaVuSans-76"/>
     <use x="715.820312" xlink:href="#DejaVuSans-69"/>
     <use x="743.603516" xlink:href="#DejaVuSans-65"/>
     <use x="805.126953" xlink:href="#DejaVuSans-73"/>
    </g>
   </g>
   <g id="text_8">
    <!-- Philip Campbell -->
    <defs>
     <path d="M 19.671875 64.796875 
L 19.671875 37.40625 
L 32.078125 37.40625 
Q 38.96875 37.40625 42.71875 40.96875 
Q 46.484375 44.53125 46.484375 51.125 
Q 46.484375 57.671875 42.71875 61.234375 
Q 38.96875 64.796875 32.078125 64.796875 
z
M 9.8125 72.90625 
L 32.078125 72.90625 
Q 44.34375 72.90625 50.609375 67.359375 
Q 56.890625 61.8125 56.890625 51.125 
Q 56.890625 40.328125 50.609375 34.8125 
Q 44.34375 29.296875 32.078125 29.296875 
L 19.671875 29.296875 
L 19.671875 0 
L 9.8125 0 
z
" id="DejaVuSans-50"/>
     <path d="M 64.40625 67.28125 
L 64.40625 56.890625 
Q 59.421875 61.53125 53.78125 63.8125 
Q 48.140625 66.109375 41.796875 66.109375 
Q 29.296875 66.109375 22.65625 58.46875 
Q 16.015625 50.828125 16.015625 36.375 
Q 16.015625 21.96875 22.65625 14.328125 
Q 29.296875 6.6875 41.796875 6.6875 
Q 48.140625 6.6875 53.78125 8.984375 
Q 59.421875 11.28125 64.40625 15.921875 
L 64.40625 5.609375 
Q 59.234375 2.09375 53.4375 0.328125 
Q 47.65625 -1.421875 41.21875 -1.421875 
Q 24.65625 -1.421875 15.125 8.703125 
Q 5.609375 18.84375 5.609375 36.375 
Q 5.609375 53.953125 15.125 64.078125 
Q 24.65625 74.21875 41.21875 74.21875 
Q 47.75 74.21875 53.53125 72.484375 
Q 59.328125 70.75 64.40625 67.28125 
z
" id="DejaVuSans-43"/>
    </defs>
    <g style="opacity:0.6;" transform="translate(885.794837 223.015681)rotate(-90)scale(0.14 -0.14)">
     <use xlink:href="#DejaVuSans-50"/>
     <use x="60.302734" xlink:href="#DejaVuSans-68"/>
     <use x="123.681641" xlink:href="#DejaVuSans-69"/>
     <use x="151.464844" xlink:href="#DejaVuSans-6c"/>
     <use x="179.248047" xlink:href="#DejaVuSans-69"/>
     <use x="207.03125" xlink:href="#DejaVuSans-70"/>
     <use x="270.507812" xlink:href="#DejaVuSans-20"/>
     <use x="302.294922" xlink:href="#DejaVuSans-43"/>
     <use x="372.119141" xlink:href="#DejaVuSans-61"/>
     <use x="433.398438" xlink:href="#DejaVuSans-6d"/>
     <use x="530.810547" xlink:href="#DejaVuSans-70"/>
     <use x="594.287109" xlink:href="#DejaVuSans-62"/>
     <use x="657.763672" xlink:href="#DejaVuSans-65"/>
     <use x="719.287109" xlink:href="#DejaVuSans-6c"/>
     <use x="747.070312" xlink:href="#DejaVuSans-6c"/>
    </g>
   </g>
   <g id="text_9">
    <!-- Magdalena Skipper -->
    <g style="opacity:0.6;" transform="translate(968.803102 248.983494)rotate(-90)scale(0.14 -0.14)">
     <use xlink:href="#DejaVuSans-4d"/>
     <use x="86.279297" xlink:href="#DejaVuSans-61"/>
     <use x="147.558594" xlink:href="#DejaVuSans-67"/>
     <use x="211.035156" xlink:href="#DejaVuSans-64"/>
     <use x="274.511719" xlink:href="#DejaVuSans-61"/>
     <use x="335.791016" xlink:href="#DejaVuSans-6c"/>
     <use x="363.574219" xlink:href="#DejaVuSans-65"/>
     <use x="425.097656" xlink:href="#DejaVuSans-6e"/>
     <use x="488.476562" xlink:href="#DejaVuSans-61"/>
     <use x="549.755859" xlink:href="#DejaVuSans-20"/>
     <use x="581.542969" xlink:href="#DejaVuSans-53"/>
     <use x="645.019531" xlink:href="#DejaVuSans-6b"/>
     <use x="702.929688" xlink:href="#DejaVuSans-69"/>
     <use x="730.712891" xlink:href="#DejaVuSans-70"/>
     <use x="794.189453" xlink:href="#DejaVuSans-70"/>
     <use x="857.666016" xlink:href="#DejaVuSans-65"/>
     <use x="919.189453" xlink:href="#DejaVuSans-72"/>
    </g>
   </g>
   <g id="PolyCollection_1">
    <path clip-path="url(#p1097c2687a)" d="M 266.429752 589.63169 
L 259.512397 586.96332 
L 252.595041 590.569226 
L 245.677686 583.862241 
L 238.760331 581.98717 
L 231.842975 580.761162 
L 231.842975 580.761162 
L 231.842975 571.323252 
L 238.760331 572.788017 
L 245.677686 575.028245 
L 252.595041 583.041369 
L 259.512397 578.733238 
z
" style="fill:#ff0000;fill-opacity:0.6;"/>
   </g>
   <g id="PolyCollection_2">
    <path clip-path="url(#p1097c2687a)" d="M 446.280992 523.499377 
L 446.280992 523.499377 
L 439.363636 559.919026 
L 432.446281 572.39546 
L 425.528926 573.044523 
L 418.61157 573.54935 
L 411.694215 561.794097 
L 404.77686 556.529474 
L 404.77686 556.529474 
L 404.77686 542.372611 
L 411.694215 548.662482 
L 418.61157 562.70699 
L 425.528926 562.103852 
L 432.446281 561.328388 
L 439.363636 546.422254 
L 446.280992 502.910128 
z
" style="fill:#ff0000;fill-opacity:0.6;"/>
   </g>
   <g id="PolyCollection_3">
    <path clip-path="url(#p1097c2687a)" d="M 653.801653 411.788414 
L 646.884298 403.927539 
L 639.966942 439.337534 
L 633.049587 466.886655 
L 626.132231 409.408516 
L 626.132231 409.408516 
L 626.132231 366.600856 
L 633.049587 435.272468 
L 639.966942 402.358345 
L 646.884298 360.052496 
z
" style="fill:#ff0000;fill-opacity:0.6;"/>
   </g>
   <g id="PolyCollection_4">
    <path clip-path="url(#p1097c2687a)" d="M 259.512397 629.224536 
L 259.512397 629.224536 
L 252.595041 629.224536 
L 245.677686 629.224536 
L 238.760331 629.224536 
L 231.842975 629.224536 
L 238.760331 -774834.398859 
L 245.677686 -774834.398859 
L 252.595041 -774834.398859 
L 259.512397 -774834.398859 
z
" style="fill:#808080;fill-opacity:0.1;"/>
   </g>
   <g id="PolyCollection_5">
    <path clip-path="url(#p1097c2687a)" d="M 446.280992 629.224536 
L 446.280992 629.224536 
L 439.363636 629.224536 
L 432.446281 629.224536 
L 425.528926 629.224536 
L 418.61157 629.224536 
L 411.694215 629.224536 
L 404.77686 629.224536 
L 411.694215 -774834.398859 
L 418.61157 -774834.398859 
L 425.528926 -774834.398859 
L 432.446281 -774834.398859 
L 439.363636 -774834.398859 
L 446.280992 -774834.398859 
z
" style="fill:#808080;fill-opacity:0.1;"/>
   </g>
   <g id="patch_3">
    <path clip-path="url(#p1097c2687a)" d="M 961.623967 92.603709 
L 961.623967 79.420827 
L 972 86.4 
z
"/>
   </g>
   <g id="patch_4">
    <path clip-path="url(#p1097c2687a)" d="M 961.623967 630 
L 961.623967 623.796291 
L 972 630 
z
"/>
   </g>
   <g id="matplotlib.axis_1">
    <g id="xtick_1">
     <g id="line2d_1">
      <defs>
       <path d="M 0 0 
L 0 3.5 
" id="m8073db74e2" style="stroke:#000000;stroke-width:0.8;"/>
      </defs>
      <g>
       <use style="stroke:#000000;stroke-width:0.8;" x="135" xlink:href="#m8073db74e2" y="630"/>
      </g>
     </g>
     <g id="text_10">
      <!-- 1900 -->
      <defs>
       <path d="M 12.40625 8.296875 
L 28.515625 8.296875 
L 28.515625 63.921875 
L 10.984375 60.40625 
L 10.984375 69.390625 
L 28.421875 72.90625 
L 38.28125 72.90625 
L 38.28125 8.296875 
L 54.390625 8.296875 
L 54.390625 0 
L 12.40625 0 
z
" id="DejaVuSans-31"/>
       <path d="M 10.984375 1.515625 
L 10.984375 10.5 
Q 14.703125 8.734375 18.5 7.8125 
Q 22.3125 6.890625 25.984375 6.890625 
Q 35.75 6.890625 40.890625 13.453125 
Q 46.046875 20.015625 46.78125 33.40625 
Q 43.953125 29.203125 39.59375 26.953125 
Q 35.25 24.703125 29.984375 24.703125 
Q 19.046875 24.703125 12.671875 31.3125 
Q 6.296875 37.9375 6.296875 49.421875 
Q 6.296875 60.640625 12.9375 67.421875 
Q 19.578125 74.21875 30.609375 74.21875 
Q 43.265625 74.21875 49.921875 64.515625 
Q 56.59375 54.828125 56.59375 36.375 
Q 56.59375 19.140625 48.40625 8.859375 
Q 40.234375 -1.421875 26.421875 -1.421875 
Q 22.703125 -1.421875 18.890625 -0.6875 
Q 15.09375 0.046875 10.984375 1.515625 
z
M 30.609375 32.421875 
Q 37.25 32.421875 41.125 36.953125 
Q 45.015625 41.5 45.015625 49.421875 
Q 45.015625 57.28125 41.125 61.84375 
Q 37.25 66.40625 30.609375 66.40625 
Q 23.96875 66.40625 20.09375 61.84375 
Q 16.21875 57.28125 16.21875 49.421875 
Q 16.21875 41.5 20.09375 36.953125 
Q 23.96875 32.421875 30.609375 32.421875 
z
" id="DejaVuSans-39"/>
       <path d="M 31.78125 66.40625 
Q 24.171875 66.40625 20.328125 58.90625 
Q 16.5 51.421875 16.5 36.375 
Q 16.5 21.390625 20.328125 13.890625 
Q 24.171875 6.390625 31.78125 6.390625 
Q 39.453125 6.390625 43.28125 13.890625 
Q 47.125 21.390625 47.125 36.375 
Q 47.125 51.421875 43.28125 58.90625 
Q 39.453125 66.40625 31.78125 66.40625 
z
M 31.78125 74.21875 
Q 44.046875 74.21875 50.515625 64.515625 
Q 56.984375 54.828125 56.984375 36.375 
Q 56.984375 17.96875 50.515625 8.265625 
Q 44.046875 -1.421875 31.78125 -1.421875 
Q 19.53125 -1.421875 13.0625 8.265625 
Q 6.59375 17.96875 6.59375 36.375 
Q 6.59375 54.828125 13.0625 64.515625 
Q 19.53125 74.21875 31.78125 74.21875 
z
" id="DejaVuSans-30"/>
      </defs>
      <g transform="translate(122.275 644.598438)scale(0.1 -0.1)">
       <use xlink:href="#DejaVuSans-31"/>
       <use x="63.623047" xlink:href="#DejaVuSans-39"/>
       <use x="127.246094" xlink:href="#DejaVuSans-30"/>
       <use x="190.869141" xlink:href="#DejaVuSans-30"/>
      </g>
     </g>
    </g>
    <g id="xtick_2">
     <g id="line2d_2">
      <g>
       <use style="stroke:#000000;stroke-width:0.8;" x="273.347107" xlink:href="#m8073db74e2" y="630"/>
      </g>
     </g>
     <g id="text_11">
      <!-- 1920 -->
      <defs>
       <path d="M 19.1875 8.296875 
L 53.609375 8.296875 
L 53.609375 0 
L 7.328125 0 
L 7.328125 8.296875 
Q 12.9375 14.109375 22.625 23.890625 
Q 32.328125 33.6875 34.8125 36.53125 
Q 39.546875 41.84375 41.421875 45.53125 
Q 43.3125 49.21875 43.3125 52.78125 
Q 43.3125 58.59375 39.234375 62.25 
Q 35.15625 65.921875 28.609375 65.921875 
Q 23.96875 65.921875 18.8125 64.3125 
Q 13.671875 62.703125 7.8125 59.421875 
L 7.8125 69.390625 
Q 13.765625 71.78125 18.9375 73 
Q 24.125 74.21875 28.421875 74.21875 
Q 39.75 74.21875 46.484375 68.546875 
Q 53.21875 62.890625 53.21875 53.421875 
Q 53.21875 48.921875 51.53125 44.890625 
Q 49.859375 40.875 45.40625 35.40625 
Q 44.1875 33.984375 37.640625 27.21875 
Q 31.109375 20.453125 19.1875 8.296875 
z
" id="DejaVuSans-32"/>
      </defs>
      <g transform="translate(260.622107 644.598438)scale(0.1 -0.1)">
       <use xlink:href="#DejaVuSans-31"/>
       <use x="63.623047" xlink:href="#DejaVuSans-39"/>
       <use x="127.246094" xlink:href="#DejaVuSans-32"/>
       <use x="190.869141" xlink:href="#DejaVuSans-30"/>
      </g>
     </g>
    </g>
    <g id="xtick_3">
     <g id="line2d_3">
      <g>
       <use style="stroke:#000000;stroke-width:0.8;" x="411.694215" xlink:href="#m8073db74e2" y="630"/>
      </g>
     </g>
     <g id="text_12">
      <!-- 1940 -->
      <defs>
       <path d="M 37.796875 64.3125 
L 12.890625 25.390625 
L 37.796875 25.390625 
z
M 35.203125 72.90625 
L 47.609375 72.90625 
L 47.609375 25.390625 
L 58.015625 25.390625 
L 58.015625 17.1875 
L 47.609375 17.1875 
L 47.609375 0 
L 37.796875 0 
L 37.796875 17.1875 
L 4.890625 17.1875 
L 4.890625 26.703125 
z
" id="DejaVuSans-34"/>
      </defs>
      <g transform="translate(398.969215 644.598438)scale(0.1 -0.1)">
       <use xlink:href="#DejaVuSans-31"/>
       <use x="63.623047" xlink:href="#DejaVuSans-39"/>
       <use x="127.246094" xlink:href="#DejaVuSans-34"/>
       <use x="190.869141" xlink:href="#DejaVuSans-30"/>
      </g>
     </g>
    </g>
    <g id="xtick_4">
     <g id="line2d_4">
      <g>
       <use style="stroke:#000000;stroke-width:0.8;" x="550.041322" xlink:href="#m8073db74e2" y="630"/>
      </g>
     </g>
     <g id="text_13">
      <!-- 1960 -->
      <defs>
       <path d="M 33.015625 40.375 
Q 26.375 40.375 22.484375 35.828125 
Q 18.609375 31.296875 18.609375 23.390625 
Q 18.609375 15.53125 22.484375 10.953125 
Q 26.375 6.390625 33.015625 6.390625 
Q 39.65625 6.390625 43.53125 10.953125 
Q 47.40625 15.53125 47.40625 23.390625 
Q 47.40625 31.296875 43.53125 35.828125 
Q 39.65625 40.375 33.015625 40.375 
z
M 52.59375 71.296875 
L 52.59375 62.3125 
Q 48.875 64.0625 45.09375 64.984375 
Q 41.3125 65.921875 37.59375 65.921875 
Q 27.828125 65.921875 22.671875 59.328125 
Q 17.53125 52.734375 16.796875 39.40625 
Q 19.671875 43.65625 24.015625 45.921875 
Q 28.375 48.1875 33.59375 48.1875 
Q 44.578125 48.1875 50.953125 41.515625 
Q 57.328125 34.859375 57.328125 23.390625 
Q 57.328125 12.15625 50.6875 5.359375 
Q 44.046875 -1.421875 33.015625 -1.421875 
Q 20.359375 -1.421875 13.671875 8.265625 
Q 6.984375 17.96875 6.984375 36.375 
Q 6.984375 53.65625 15.1875 63.9375 
Q 23.390625 74.21875 37.203125 74.21875 
Q 40.921875 74.21875 44.703125 73.484375 
Q 48.484375 72.75 52.59375 71.296875 
z
" id="DejaVuSans-36"/>
      </defs>
      <g transform="translate(537.316322 644.598438)scale(0.1 -0.1)">
       <use xlink:href="#DejaVuSans-31"/>
       <use x="63.623047" xlink:href="#DejaVuSans-39"/>
       <use x="127.246094" xlink:href="#DejaVuSans-36"/>
       <use x="190.869141" xlink:href="#DejaVuSans-30"/>
      </g>
     </g>
    </g>
    <g id="xtick_5">
     <g id="line2d_5">
      <g>
       <use style="stroke:#000000;stroke-width:0.8;" x="688.38843" xlink:href="#m8073db74e2" y="630"/>
      </g>
     </g>
     <g id="text_14">
      <!-- 1980 -->
      <defs>
       <path d="M 31.78125 34.625 
Q 24.75 34.625 20.71875 30.859375 
Q 16.703125 27.09375 16.703125 20.515625 
Q 16.703125 13.921875 20.71875 10.15625 
Q 24.75 6.390625 31.78125 6.390625 
Q 38.8125 6.390625 42.859375 10.171875 
Q 46.921875 13.96875 46.921875 20.515625 
Q 46.921875 27.09375 42.890625 30.859375 
Q 38.875 34.625 31.78125 34.625 
z
M 21.921875 38.8125 
Q 15.578125 40.375 12.03125 44.71875 
Q 8.5 49.078125 8.5 55.328125 
Q 8.5 64.0625 14.71875 69.140625 
Q 20.953125 74.21875 31.78125 74.21875 
Q 42.671875 74.21875 48.875 69.140625 
Q 55.078125 64.0625 55.078125 55.328125 
Q 55.078125 49.078125 51.53125 44.71875 
Q 48 40.375 41.703125 38.8125 
Q 48.828125 37.15625 52.796875 32.3125 
Q 56.78125 27.484375 56.78125 20.515625 
Q 56.78125 9.90625 50.3125 4.234375 
Q 43.84375 -1.421875 31.78125 -1.421875 
Q 19.734375 -1.421875 13.25 4.234375 
Q 6.78125 9.90625 6.78125 20.515625 
Q 6.78125 27.484375 10.78125 32.3125 
Q 14.796875 37.15625 21.921875 38.8125 
z
M 18.3125 54.390625 
Q 18.3125 48.734375 21.84375 45.5625 
Q 25.390625 42.390625 31.78125 42.390625 
Q 38.140625 42.390625 41.71875 45.5625 
Q 45.3125 48.734375 45.3125 54.390625 
Q 45.3125 60.0625 41.71875 63.234375 
Q 38.140625 66.40625 31.78125 66.40625 
Q 25.390625 66.40625 21.84375 63.234375 
Q 18.3125 60.0625 18.3125 54.390625 
z
" id="DejaVuSans-38"/>
      </defs>
      <g transform="translate(675.66343 644.598438)scale(0.1 -0.1)">
       <use xlink:href="#DejaVuSans-31"/>
       <use x="63.623047" xlink:href="#DejaVuSans-39"/>
       <use x="127.246094" xlink:href="#DejaVuSans-38"/>
       <use x="190.869141" xlink:href="#DejaVuSans-30"/>
      </g>
     </g>
    </g>
    <g id="xtick_6">
     <g id="line2d_6">
      <g>
       <use style="stroke:#000000;stroke-width:0.8;" x="826.735537" xlink:href="#m8073db74e2" y="630"/>
      </g>
     </g>
     <g id="text_15">
      <!-- 2000 -->
      <g transform="translate(814.010537 644.598438)scale(0.1 -0.1)">
       <use xlink:href="#DejaVuSans-32"/>
       <use x="63.623047" xlink:href="#DejaVuSans-30"/>
       <use x="127.246094" xlink:href="#DejaVuSans-30"/>
       <use x="190.869141" xlink:href="#DejaVuSans-30"/>
      </g>
     </g>
    </g>
    <g id="xtick_7">
     <g id="line2d_7">
      <g>
       <use style="stroke:#000000;stroke-width:0.8;" x="965.082645" xlink:href="#m8073db74e2" y="630"/>
      </g>
     </g>
     <g id="text_16">
      <!-- 2020 -->
      <g transform="translate(952.357645 644.598438)scale(0.1 -0.1)">
       <use xlink:href="#DejaVuSans-32"/>
       <use x="63.623047" xlink:href="#DejaVuSans-30"/>
       <use x="127.246094" xlink:href="#DejaVuSans-32"/>
       <use x="190.869141" xlink:href="#DejaVuSans-30"/>
      </g>
     </g>
    </g>
    <g id="text_17">
     <!-- Year -->
     <defs>
      <path d="M -0.203125 72.90625 
L 10.40625 72.90625 
L 30.609375 42.921875 
L 50.6875 72.90625 
L 61.28125 72.90625 
L 35.5 34.71875 
L 35.5 0 
L 25.59375 0 
L 25.59375 34.71875 
z
" id="DejaVuSans-59"/>
     </defs>
     <g transform="translate(540.012187 659.79625)scale(0.12 -0.12)">
      <use xlink:href="#DejaVuSans-59"/>
      <use x="60.880859" xlink:href="#DejaVuSans-65"/>
      <use x="122.404297" xlink:href="#DejaVuSans-61"/>
      <use x="183.683594" xlink:href="#DejaVuSans-72"/>
     </g>
    </g>
   </g>
   <g id="matplotlib.axis_2">
    <g id="ytick_1">
     <g id="line2d_8">
      <defs>
       <path d="M 0 0 
L -3.5 0 
" id="m2c2c6cd9f0" style="stroke:#000000;stroke-width:0.8;"/>
      </defs>
      <g>
       <use style="stroke:#000000;stroke-width:0.8;" x="135" xlink:href="#m2c2c6cd9f0" y="629.224536"/>
      </g>
     </g>
     <g id="text_18">
      <!-- 0 -->
      <g transform="translate(121.6375 633.023755)scale(0.1 -0.1)">
       <use xlink:href="#DejaVuSans-30"/>
      </g>
     </g>
    </g>
    <g id="ytick_2">
     <g id="line2d_9">
      <g>
       <use style="stroke:#000000;stroke-width:0.8;" x="135" xlink:href="#m2c2c6cd9f0" y="551.678174"/>
      </g>
     </g>
     <g id="text_19">
      <!-- 1000 -->
      <g transform="translate(102.55 555.477393)scale(0.1 -0.1)">
       <use xlink:href="#DejaVuSans-31"/>
       <use x="63.623047" xlink:href="#DejaVuSans-30"/>
       <use x="127.246094" xlink:href="#DejaVuSans-30"/>
       <use x="190.869141" xlink:href="#DejaVuSans-30"/>
      </g>
     </g>
    </g>
    <g id="ytick_3">
     <g id="line2d_10">
      <g>
       <use style="stroke:#000000;stroke-width:0.8;" x="135" xlink:href="#m2c2c6cd9f0" y="474.131812"/>
      </g>
     </g>
     <g id="text_20">
      <!-- 2000 -->
      <g transform="translate(102.55 477.93103)scale(0.1 -0.1)">
       <use xlink:href="#DejaVuSans-32"/>
       <use x="63.623047" xlink:href="#DejaVuSans-30"/>
       <use x="127.246094" xlink:href="#DejaVuSans-30"/>
       <use x="190.869141" xlink:href="#DejaVuSans-30"/>
      </g>
     </g>
    </g>
    <g id="ytick_4">
     <g id="line2d_11">
      <g>
       <use style="stroke:#000000;stroke-width:0.8;" x="135" xlink:href="#m2c2c6cd9f0" y="396.585449"/>
      </g>
     </g>
     <g id="text_21">
      <!-- 3000 -->
      <defs>
       <path d="M 40.578125 39.3125 
Q 47.65625 37.796875 51.625 33 
Q 55.609375 28.21875 55.609375 21.1875 
Q 55.609375 10.40625 48.1875 4.484375 
Q 40.765625 -1.421875 27.09375 -1.421875 
Q 22.515625 -1.421875 17.65625 -0.515625 
Q 12.796875 0.390625 7.625 2.203125 
L 7.625 11.71875 
Q 11.71875 9.328125 16.59375 8.109375 
Q 21.484375 6.890625 26.8125 6.890625 
Q 36.078125 6.890625 40.9375 10.546875 
Q 45.796875 14.203125 45.796875 21.1875 
Q 45.796875 27.640625 41.28125 31.265625 
Q 36.765625 34.90625 28.71875 34.90625 
L 20.21875 34.90625 
L 20.21875 43.015625 
L 29.109375 43.015625 
Q 36.375 43.015625 40.234375 45.921875 
Q 44.09375 48.828125 44.09375 54.296875 
Q 44.09375 59.90625 40.109375 62.90625 
Q 36.140625 65.921875 28.71875 65.921875 
Q 24.65625 65.921875 20.015625 65.03125 
Q 15.375 64.15625 9.8125 62.3125 
L 9.8125 71.09375 
Q 15.4375 72.65625 20.34375 73.4375 
Q 25.25 74.21875 29.59375 74.21875 
Q 40.828125 74.21875 47.359375 69.109375 
Q 53.90625 64.015625 53.90625 55.328125 
Q 53.90625 49.265625 50.4375 45.09375 
Q 46.96875 40.921875 40.578125 39.3125 
z
" id="DejaVuSans-33"/>
      </defs>
      <g transform="translate(102.55 400.384668)scale(0.1 -0.1)">
       <use xlink:href="#DejaVuSans-33"/>
       <use x="63.623047" xlink:href="#DejaVuSans-30"/>
       <use x="127.246094" xlink:href="#DejaVuSans-30"/>
       <use x="190.869141" xlink:href="#DejaVuSans-30"/>
      </g>
     </g>
    </g>
    <g id="ytick_5">
     <g id="line2d_12">
      <g>
       <use style="stroke:#000000;stroke-width:0.8;" x="135" xlink:href="#m2c2c6cd9f0" y="319.039087"/>
      </g>
     </g>
     <g id="text_22">
      <!-- 4000 -->
      <g transform="translate(102.55 322.838306)scale(0.1 -0.1)">
       <use xlink:href="#DejaVuSans-34"/>
       <use x="63.623047" xlink:href="#DejaVuSans-30"/>
       <use x="127.246094" xlink:href="#DejaVuSans-30"/>
       <use x="190.869141" xlink:href="#DejaVuSans-30"/>
      </g>
     </g>
    </g>
    <g id="ytick_6">
     <g id="line2d_13">
      <g>
       <use style="stroke:#000000;stroke-width:0.8;" x="135" xlink:href="#m2c2c6cd9f0" y="241.492725"/>
      </g>
     </g>
     <g id="text_23">
      <!-- 5000 -->
      <defs>
       <path d="M 10.796875 72.90625 
L 49.515625 72.90625 
L 49.515625 64.59375 
L 19.828125 64.59375 
L 19.828125 46.734375 
Q 21.96875 47.46875 24.109375 47.828125 
Q 26.265625 48.1875 28.421875 48.1875 
Q 40.625 48.1875 47.75 41.5 
Q 54.890625 34.8125 54.890625 23.390625 
Q 54.890625 11.625 47.5625 5.09375 
Q 40.234375 -1.421875 26.90625 -1.421875 
Q 22.3125 -1.421875 17.546875 -0.640625 
Q 12.796875 0.140625 7.71875 1.703125 
L 7.71875 11.625 
Q 12.109375 9.234375 16.796875 8.0625 
Q 21.484375 6.890625 26.703125 6.890625 
Q 35.15625 6.890625 40.078125 11.328125 
Q 45.015625 15.765625 45.015625 23.390625 
Q 45.015625 31 40.078125 35.4375 
Q 35.15625 39.890625 26.703125 39.890625 
Q 22.75 39.890625 18.8125 39.015625 
Q 14.890625 38.140625 10.796875 36.28125 
z
" id="DejaVuSans-35"/>
      </defs>
      <g transform="translate(102.55 245.291943)scale(0.1 -0.1)">
       <use xlink:href="#DejaVuSans-35"/>
       <use x="63.623047" xlink:href="#DejaVuSans-30"/>
       <use x="127.246094" xlink:href="#DejaVuSans-30"/>
       <use x="190.869141" xlink:href="#DejaVuSans-30"/>
      </g>
     </g>
    </g>
    <g id="ytick_7">
     <g id="line2d_14">
      <g>
       <use style="stroke:#000000;stroke-width:0.8;" x="135" xlink:href="#m2c2c6cd9f0" y="163.946362"/>
      </g>
     </g>
     <g id="text_24">
      <!-- 6000 -->
      <g transform="translate(102.55 167.745581)scale(0.1 -0.1)">
       <use xlink:href="#DejaVuSans-36"/>
       <use x="63.623047" xlink:href="#DejaVuSans-30"/>
       <use x="127.246094" xlink:href="#DejaVuSans-30"/>
       <use x="190.869141" xlink:href="#DejaVuSans-30"/>
      </g>
     </g>
    </g>
    <g id="ytick_8">
     <g id="line2d_15">
      <g>
       <use style="stroke:#000000;stroke-width:0.8;" x="135" xlink:href="#m2c2c6cd9f0" y="86.4"/>
      </g>
     </g>
     <g id="text_25">
      <!-- 7000 -->
      <defs>
       <path d="M 8.203125 72.90625 
L 55.078125 72.90625 
L 55.078125 68.703125 
L 28.609375 0 
L 18.3125 0 
L 43.21875 64.59375 
L 8.203125 64.59375 
z
" id="DejaVuSans-37"/>
      </defs>
      <g transform="translate(102.55 90.199219)scale(0.1 -0.1)">
       <use xlink:href="#DejaVuSans-37"/>
       <use x="63.623047" xlink:href="#DejaVuSans-30"/>
       <use x="127.246094" xlink:href="#DejaVuSans-30"/>
       <use x="190.869141" xlink:href="#DejaVuSans-30"/>
      </g>
     </g>
    </g>
    <g id="text_26">
     <!-- Publications -->
     <defs>
      <path d="M 8.5 21.578125 
L 8.5 54.6875 
L 17.484375 54.6875 
L 17.484375 21.921875 
Q 17.484375 14.15625 20.5 10.265625 
Q 23.53125 6.390625 29.59375 6.390625 
Q 36.859375 6.390625 41.078125 11.03125 
Q 45.3125 15.671875 45.3125 23.6875 
L 45.3125 54.6875 
L 54.296875 54.6875 
L 54.296875 0 
L 45.3125 0 
L 45.3125 8.40625 
Q 42.046875 3.421875 37.71875 1 
Q 33.40625 -1.421875 27.6875 -1.421875 
Q 18.265625 -1.421875 13.375 4.4375 
Q 8.5 10.296875 8.5 21.578125 
z
M 31.109375 56 
z
" id="DejaVuSans-75"/>
      <path d="M 18.3125 70.21875 
L 18.3125 54.6875 
L 36.8125 54.6875 
L 36.8125 47.703125 
L 18.3125 47.703125 
L 18.3125 18.015625 
Q 18.3125 11.328125 20.140625 9.421875 
Q 21.96875 7.515625 27.59375 7.515625 
L 36.8125 7.515625 
L 36.8125 0 
L 27.59375 0 
Q 17.1875 0 13.234375 3.875 
Q 9.28125 7.765625 9.28125 18.015625 
L 9.28125 47.703125 
L 2.6875 47.703125 
L 2.6875 54.6875 
L 9.28125 54.6875 
L 9.28125 70.21875 
z
" id="DejaVuSans-74"/>
     </defs>
     <g transform="translate(96.054375 394.356562)rotate(-90)scale(0.12 -0.12)">
      <use xlink:href="#DejaVuSans-50"/>
      <use x="60.287109" xlink:href="#DejaVuSans-75"/>
      <use x="123.666016" xlink:href="#DejaVuSans-62"/>
      <use x="187.142578" xlink:href="#DejaVuSans-6c"/>
      <use x="214.925781" xlink:href="#DejaVuSans-69"/>
      <use x="242.708984" xlink:href="#DejaVuSans-63"/>
      <use x="297.689453" xlink:href="#DejaVuSans-61"/>
      <use x="358.96875" xlink:href="#DejaVuSans-74"/>
      <use x="398.177734" xlink:href="#DejaVuSans-69"/>
      <use x="425.960938" xlink:href="#DejaVuSans-6f"/>
      <use x="487.142578" xlink:href="#DejaVuSans-6e"/>
      <use x="550.521484" xlink:href="#DejaVuSans-73"/>
     </g>
    </g>
   </g>
   <g id="line2d_16">
    <path clip-path="url(#p1097c2687a)" d="M 951.247934 332.454608 
L 944.330579 384.953495 
L 937.413223 379.757889 
L 930.495868 389.606277 
L 923.578512 417.755606 
L 916.661157 418.608616 
L 909.743802 415.351669 
L 902.826446 421.167646 
L 895.909091 420.004451 
L 888.991736 423.028759 
L 882.07438 418.453524 
L 875.157025 414.421113 
L 868.239669 403.952354 
L 861.322314 397.283367 
L 854.404959 411.70699 
L 847.487603 417.367874 
L 840.570248 417.290328 
L 833.652893 406.899116 
L 826.735537 396.973181 
L 819.818182 398.446562 
L 812.900826 395.034522 
L 805.983471 393.79378 
L 799.066116 392.242853 
L 792.14876 376.656034 
L 785.231405 376.500942 
L 778.31405 371.150243 
L 771.396694 365.256719 
L 764.479339 370.452325 
L 757.561983 344.939572 
L 750.644628 355.408331 
L 743.727273 349.592354 
L 736.809917 339.201141 
L 729.892562 356.49398 
L 722.975207 365.256719 
L 716.057851 357.734722 
L 709.140496 375.2602 
L 702.22314 403.254437 
L 695.305785 406.201198 
L 688.38843 402.168787 
L 681.471074 385.108588 
L 674.553719 395.189615 
L 667.636364 397.903738 
L 660.719008 405.891013 
L 653.801653 395.422254 
L 646.884298 386.9697 
L 639.966942 425.044964 
L 633.049587 454.667675 
L 626.132231 392.863224 
L 619.214876 310.276348 
L 612.297521 379.52525 
L 605.380165 396.740542 
L 598.46281 285.92679 
L 591.545455 248.859629 
L 584.628099 286.547161 
L 577.710744 326.87127 
L 570.793388 313.378203 
L 563.876033 315.549501 
L 556.958678 325.320342 
L 550.041322 361.146762 
L 543.123967 377.043766 
L 536.206612 395.344708 
L 529.289256 448.463966 
L 522.371901 445.749843 
L 515.454545 481.033438 
L 508.53719 485.376034 
L 501.619835 489.09826 
L 494.702479 498.326277 
L 487.785124 497.705906 
L 480.867769 490.416548 
L 473.950413 491.889929 
L 467.033058 500.187389 
L 460.115702 509.725592 
L 453.198347 495.457061 
L 446.280992 515.541569 
L 439.363636 554.702482 
L 432.446281 568.118003 
L 425.528926 568.81592 
L 418.61157 569.358745 
L 411.694215 556.718688 
L 404.77686 551.057803 
L 397.859504 529.655007 
L 390.942149 586.263852 
L 384.024793 580.060143 
L 377.107438 532.291583 
L 370.190083 541.209415 
L 363.272727 548.886505 
L 356.355372 547.878402 
L 349.438017 552.298545 
L 342.520661 550.592525 
L 335.603306 558.036976 
L 328.68595 557.416605 
L 321.768595 555.16776 
L 314.85124 554.392297 
L 307.933884 561.13883 
L 301.016529 560.130728 
L 294.099174 552.918916 
L 287.181818 557.106419 
L 280.264463 534.540428 
L 273.347107 559.587903 
L 266.429752 586.651583 
L 259.512397 583.782368 
L 252.595041 587.659686 
L 245.677686 580.447874 
L 238.760331 578.431669 
L 231.842975 577.113381 
L 224.92562 574.476805 
L 218.008264 573.623795 
L 211.090909 557.106419 
L 204.173554 563.077489 
L 197.256198 570.909672 
L 190.338843 579.517318 
L 183.421488 580.525421 
L 176.504132 578.974494 
L 169.586777 581.145792 
L 162.669421 578.431669 
L 155.752066 579.982596 
L 148.834711 582.076348 
L 141.917355 587.349501 
L 135 611.078688 
L 128.082645 628.138887 
L 121.165289 629.14699 
L 114.247934 629.14699 
" style="fill:none;stroke:#ff0000;stroke-linecap:square;stroke-width:1.5;"/>
   </g>
   <g id="line2d_17">
    <path clip-path="url(#p1097c2687a)" d="M 951.247934 407.597033 
L 944.330579 367.970842 
L 937.413223 408.217404 
L 930.495868 418.841255 
L 923.578512 422.175749 
L 916.661157 420.314636 
L 909.743802 408.760228 
L 902.826446 408.992867 
L 895.909091 432.334322 
L 888.991736 426.053067 
L 882.07438 428.999829 
L 875.157025 424.579686 
L 868.239669 417.67806 
L 861.322314 412.172268 
L 854.404959 414.033381 
L 847.487603 421.555378 
L 840.570248 406.976662 
L 833.652893 411.70699 
L 826.735537 412.482454 
L 819.818182 416.282225 
L 812.900826 415.739401 
L 805.983471 414.188474 
L 799.066116 387.900257 
L 792.14876 395.809986 
L 785.231405 391.467389 
L 778.31405 395.732439 
L 771.396694 413.257917 
L 764.479339 422.330842 
L 757.561983 436.134094 
L 750.644628 440.631783 
L 743.727273 434.583167 
L 736.809917 435.436177 
L 729.892562 445.904936 
L 722.975207 464.593609 
L 716.057851 457.53689 
L 709.140496 455.83087 
L 702.22314 447.610956 
L 695.305785 442.492896 
L 688.38843 465.911897 
L 681.471074 460.018374 
L 674.553719 466.454722 
L 667.636364 462.577404 
L 660.719008 468.005649 
L 653.801653 488.012611 
L 646.884298 487.159601 
L 639.966942 467.928103 
L 633.049587 482.119087 
L 626.132231 487.935064 
L 619.214876 446.060029 
L 612.297521 476.613295 
L 605.380165 474.054265 
L 598.46281 420.779914 
L 591.545455 425.665335 
L 584.628099 416.669957 
L 577.710744 457.924622 
L 570.793388 487.004508 
L 563.876033 524.536947 
L 556.958678 538.727932 
L 550.041322 529.732553 
L 543.123967 545.009187 
L 536.206612 546.792753 
L 529.289256 550.825164 
L 522.371901 550.437432 
L 515.454545 557.649244 
L 508.53719 542.295064 
L 501.619835 557.261512 
L 494.702479 553.074009 
L 487.785124 556.175863 
L 480.867769 563.465221 
L 473.950413 569.979116 
L 467.033058 563.542767 
L 460.115702 568.118003 
L 453.198347 504.840171 
L 446.280992 549.041598 
L 439.363636 566.567076 
L 432.446281 560.053181 
L 425.528926 552.918916 
L 418.61157 556.253409 
L 411.694215 558.424708 
L 404.77686 581.766163 
L 397.859504 580.602967 
L 390.942149 575.950185 
L 384.024793 581.688616 
L 377.107438 578.19903 
L 370.190083 571.530043 
L 363.272727 576.880742 
L 356.355372 574.631897 
L 349.438017 578.586762 
L 342.520661 576.958288 
L 335.603306 554.31475 
L 328.68595 570.987218 
L 321.768595 560.130728 
L 314.85124 577.34602 
L 307.933884 560.130728 
L 301.016529 579.362225 
L 294.099174 584.868017 
L 287.181818 583.31709 
L 280.264463 591.459458 
L 273.347107 593.087932 
L 266.429752 596.267332 
L 259.512397 596.577518 
L 252.595041 598.67127 
L 245.677686 583.627275 
L 238.760331 584.790471 
L 231.842975 580.680514 
L 224.92562 585.333295 
L 218.008264 589.133067 
L 211.090909 576.648103 
L 204.173554 578.741854 
L 197.256198 585.178203 
L 190.338843 588.280057 
L 183.421488 586.341398 
L 176.504132 585.02311 
L 169.586777 590.14117 
L 162.669421 588.124964 
L 155.752066 591.226819 
L 148.834711 586.574037 
L 141.917355 585.565934 
L 135 587.504593 
L 128.082645 590.451355 
L 121.165289 577.811298 
L 114.247934 584.712924 
L 107.330579 581.843709 
L 100.413223 594.483766 
L 93.495868 617.670128 
L 86.578512 574.399258 
L 79.661157 584.712924 
L 72.743802 599.679372 
L 65.826446 592.467561 
L 58.909091 559.43281 
L 51.991736 587.969872 
L 45.07438 572.770785 
L 38.157025 559.820542 
L 31.239669 559.587903 
L 24.322314 565.481427 
L 17.404959 576.260371 
L 3.570248 593.087932 
L -1 600.978019 
L -1 600.978019 
" style="fill:none;stroke:#ff4500;stroke-linecap:square;stroke-opacity:0.5;stroke-width:1.5;"/>
   </g>
   <g id="line2d_18">
    <path clip-path="url(#p1097c2687a)" d="M 951.247934 625.890043 
L 944.330579 621.624993 
L 937.413223 615.49883 
L 930.495868 615.576377 
L 923.578512 616.041655 
L 916.661157 612.08679 
L 909.743802 611.931698 
L 902.826446 612.784708 
L 895.909091 612.396976 
L 888.991736 611.311327 
L 882.07438 611.854151 
L 875.157025 610.846049 
L 868.239669 613.172439 
L 861.322314 611.543966 
L 854.404959 609.837946 
L 847.487603 607.278916 
L 840.570248 607.046277 
L 833.652893 605.572896 
L 826.735537 606.736091 
L 819.818182 605.107618 
L 812.900826 607.589101 
L 805.983471 611.931698 
L 799.066116 614.180542 
L 792.14876 613.947903 
L 785.231405 614.335635 
L 778.31405 614.800913 
L 771.396694 619.531241 
L 764.479339 619.143509 
L 757.561983 620.384251 
L 750.644628 621.082168 
L 743.727273 620.074066 
L 736.809917 621.159715 
L 729.892562 622.32291 
L 722.975207 624.106476 
L 716.057851 623.486106 
L 709.140496 623.718745 
L 702.22314 623.951384 
L 695.305785 623.563652 
L 688.38843 624.494208 
L 681.471074 626.045136 
L 674.553719 625.269672 
L 667.636364 624.726847 
L 660.719008 624.959486 
L 653.801653 625.502311 
L 646.884298 625.890043 
L 639.966942 625.73495 
L 633.049587 626.432867 
L 626.132231 626.045136 
L 619.214876 626.820599 
L 612.297521 626.820599 
L 605.380165 627.828702 
L 598.46281 627.285877 
L 591.545455 627.208331 
L 584.628099 627.518516 
L 577.710744 626.975692 
L 570.793388 628.061341 
L 563.876033 627.906248 
L 556.958678 627.285877 
L 550.041322 627.828702 
L 543.123967 628.138887 
L 536.206612 628.216434 
L 529.289256 628.371526 
L 522.371901 627.906248 
L 515.454545 627.285877 
L 508.53719 627.673609 
L 501.619835 627.751155 
L 494.702479 627.44097 
L 487.785124 628.449073 
L 480.867769 628.449073 
L 473.950413 628.216434 
L 467.033058 628.29398 
L 460.115702 628.371526 
L 453.198347 628.138887 
L 446.280992 628.29398 
L 439.363636 628.914351 
L 432.446281 628.604165 
L 425.528926 628.759258 
L 418.61157 628.371526 
L 411.694215 628.449073 
L 404.77686 628.449073 
L 397.859504 628.759258 
L 390.942149 628.991897 
L 384.024793 628.759258 
L 377.107438 628.681712 
L 370.190083 628.759258 
L 363.272727 628.604165 
L 356.355372 628.604165 
L 349.438017 629.069444 
L 342.520661 628.914351 
L 335.603306 629.069444 
L 328.68595 628.449073 
L 321.768595 628.759258 
L 314.85124 628.836805 
L 307.933884 628.681712 
L 301.016529 628.836805 
L 294.099174 628.991897 
L 287.181818 628.138887 
L 280.264463 629.069444 
L 273.347107 628.914351 
L 266.429752 628.759258 
L 259.512397 627.983795 
L 252.595041 628.836805 
L 245.677686 628.836805 
L 238.760331 628.604165 
L 231.842975 629.14699 
L 224.92562 628.449073 
L 218.008264 628.759258 
L 211.090909 628.29398 
L 204.173554 628.836805 
L 197.256198 628.836805 
L 190.338843 628.759258 
L 183.421488 628.991897 
L 176.504132 628.991897 
L 169.586777 628.681712 
L 162.669421 628.681712 
L 155.752066 629.069444 
L 148.834711 628.836805 
L 141.917355 628.991897 
L 135 628.449073 
" style="fill:none;stroke:#0000ff;stroke-linecap:square;stroke-opacity:0.5;stroke-width:1.5;"/>
   </g>
   <g id="line2d_19">
    <path clip-path="url(#p1097c2687a)" d="M 951.247934 577.811298 
L 944.330579 586.108759 
L 937.413223 572.925877 
L 930.495868 577.113381 
L 923.578512 580.447874 
L 916.661157 580.525421 
L 909.743802 583.549729 
L 902.826446 585.798573 
L 895.909091 583.937461 
L 888.991736 578.509215 
L 882.07438 578.121484 
L 875.157025 578.043937 
L 868.239669 579.439772 
L 861.322314 592.855292 
L 854.404959 595.25923 
L 847.487603 600.454836 
L 840.570248 600.454836 
L 833.652893 600.067104 
L 826.735537 599.52428 
L 819.818182 600.609929 
L 812.900826 594.638859 
L 805.983471 592.079829 
L 799.066116 592.777746 
L 792.14876 589.908531 
L 785.231405 590.606448 
L 778.31405 590.063623 
L 771.396694 592.932839 
L 764.479339 589.830984 
L 757.561983 589.055521 
L 750.644628 589.443252 
L 743.727273 594.483766 
L 736.809917 594.018488 
L 729.892562 595.181683 
L 722.975207 596.887703 
L 716.057851 596.034693 
L 709.140496 592.157375 
L 702.22314 598.361084 
L 695.305785 598.128445 
L 688.38843 598.593723 
L 681.471074 604.874979 
L 674.553719 605.26271 
L 667.636364 607.434009 
L 660.719008 613.094893 
L 653.801653 617.20485 
L 646.884298 619.918973 
" style="fill:none;stroke:#000000;stroke-linecap:square;stroke-opacity:0.5;stroke-width:1.5;"/>
   </g>
   <g id="line2d_20">
    <path clip-path="url(#p1097c2687a)" d="M 951.247934 560.906191 
L 944.330579 560.673552 
L 937.413223 563.542767 
L 930.495868 565.171241 
L 923.578512 566.25689 
L 916.661157 569.048559 
L 909.743802 571.995321 
L 902.826446 576.105278 
L 895.909091 566.489529 
L 888.991736 567.187447 
L 882.07438 565.326334 
L 875.157025 568.350642 
L 868.239669 567.730271 
L 861.322314 570.52194 
L 854.404959 572.150414 
L 847.487603 575.097175 
L 840.570248 577.733752 
L 833.652893 577.966391 
L 826.735537 580.525421 
L 819.818182 581.300884 
L 812.900826 584.247646 
L 805.983471 595.414322 
L 799.066116 598.748816 
L 792.14876 607.511555 
L 785.231405 606.813638 
L 778.31405 611.001141 
L 771.396694 615.343738 
L 764.479339 618.678231 
" style="fill:none;stroke:#00bfbf;stroke-linecap:square;stroke-opacity:0.5;stroke-width:1.5;"/>
   </g>
   <g id="line2d_21">
    <path clip-path="url(#p1097c2687a)" d="M 951.247934 605.26271 
L 944.330579 605.26271 
L 937.413223 605.185164 
L 930.495868 602.626134 
L 923.578512 601.385392 
L 916.661157 591.769643 
L 909.743802 595.25923 
L 902.826446 585.565934 
L 895.909091 588.745335 
L 888.991736 582.386534 
L 882.07438 585.02311 
L 875.157025 577.113381 
L 868.239669 583.782368 
L 861.322314 587.194408 
L 854.404959 598.593723 
L 847.487603 607.123823 
L 840.570248 609.217575 
L 833.652893 604.254608 
L 826.735537 604.64234 
L 819.818182 612.784708 
L 812.900826 615.809016 
L 805.983471 614.956006 
L 799.066116 614.180542 
L 792.14876 611.621512 
L 785.231405 616.894665 
L 778.31405 614.956006 
L 771.396694 614.568274 
L 764.479339 612.08679 
L 757.561983 616.196748 
L 750.644628 617.592582 
L 743.727273 616.894665 
L 736.809917 618.135407 
L 729.892562 618.445592 
L 722.975207 619.065963 
L 716.057851 618.678231 
L 709.140496 619.996519 
L 702.22314 618.368046 
L 695.305785 617.747675 
L 688.38843 618.600685 
L 681.471074 618.523138 
L 674.553719 624.571755 
L 667.636364 625.424765 
L 660.719008 625.192126 
L 653.801653 625.73495 
" style="fill:none;stroke:#bf00bf;stroke-linecap:square;stroke-opacity:0.5;stroke-width:1.5;"/>
   </g>
   <g id="line2d_22">
    <path clip-path="url(#p1097c2687a)" d="M 951.247934 524.847133 
L 944.330579 514.688559 
L 937.413223 506.158459 
L 930.495868 511.664251 
L 923.578512 528.10408 
L 916.661157 530.042739 
L 909.743802 519.186248 
L 902.826446 518.798516 
L 895.909091 507.63184 
L 888.991736 497.783452 
L 882.07438 498.636462 
L 875.157025 490.881826 
L 868.239669 490.959372 
L 861.322314 489.485991 
L 854.404959 485.220942 
L 847.487603 489.253352 
L 840.570248 487.547332 
L 833.652893 519.729073 
L 826.735537 506.701284 
L 819.818182 501.738317 
L 812.900826 502.436234 
L 805.983471 497.163081 
L 799.066116 504.064708 
L 792.14876 498.946648 
L 785.231405 491.114465 
L 778.31405 493.208217 
L 771.396694 497.39572 
L 764.479339 503.444337 
L 757.561983 498.869101 
L 750.644628 500.420029 
L 743.727273 500.032297 
L 736.809917 509.33786 
L 729.892562 499.179287 
L 722.975207 498.946648 
L 716.057851 455.055407 
L 709.140496 472.03806 
L 702.22314 479.560057 
L 695.305785 486.771869 
L 688.38843 491.036919 
L 681.471074 498.869101 
L 674.553719 494.83669 
L 667.636364 491.812382 
L 660.719008 483.9802 
L 653.801653 494.448959 
L 646.884298 494.604051 
L 639.966942 498.24873 
L 633.049587 510.656148 
L 626.132231 507.476748 
L 619.214876 519.263795 
L 612.297521 533.377233 
L 605.380165 546.01729 
L 598.46281 542.915435 
L 591.545455 541.75224 
L 584.628099 544.854094 
L 577.710744 547.180485 
L 570.793388 556.330956 
L 563.876033 552.376091 
L 556.958678 556.098317 
L 550.041322 557.804337 
L 543.123967 559.820542 
L 536.206612 571.685136 
L 529.289256 582.929358 
L 522.371901 575.872639 
L 515.454545 584.790471 
L 508.53719 576.49301 
L 501.619835 578.586762 
L 494.702479 579.439772 
L 487.785124 581.068245 
L 480.867769 588.047418 
L 473.950413 580.680514 
L 467.033058 582.696719 
L 460.115702 590.683994 
L 453.198347 593.630756 
L 446.280992 597.973352 
L 439.363636 615.653923 
L 432.446281 612.319429 
L 425.528926 606.658545 
L 418.61157 604.487247 
L 411.694215 607.976833 
L 404.77686 607.666648 
L 397.859504 605.340257 
L 390.942149 609.682853 
L 384.024793 601.2303 
L 377.107438 599.369187 
L 370.190083 612.164337 
L 363.272727 604.797432 
L 356.355372 599.601826 
L 349.438017 602.781227 
L 342.520661 606.425906 
L 335.603306 596.577518 
L 328.68595 601.928217 
" style="fill:none;stroke:#008000;stroke-linecap:square;stroke-opacity:0.5;stroke-width:1.5;"/>
   </g>
   <g id="line2d_23">
    <path clip-path="url(#p1097c2687a)" d="M 642.613857 629.224536 
L 642.613857 171.700999 
" style="fill:none;stroke:#000000;stroke-dasharray:1.5,2.475;stroke-dashoffset:0;stroke-width:1.5;"/>
   </g>
   <g id="line2d_24">
    <path clip-path="url(#p1097c2687a)" d="M 644.381099 109.663909 
L 644.381099 -1 
" style="fill:none;stroke:#000000;stroke-dasharray:1.5,2.475;stroke-dashoffset:0;stroke-width:1.5;"/>
   </g>
   <g id="line2d_25">
    <path clip-path="url(#p1097c2687a)" d="M 590.680785 629.224536 
L 590.680785 171.700999 
" style="fill:none;stroke:#000000;stroke-dasharray:1.5,2.475;stroke-dashoffset:0;stroke-width:1.5;"/>
   </g>
   <g id="line2d_26">
    <path clip-path="url(#p1097c2687a)" d="M 592.410124 629.224536 
L 592.410124 171.700999 
" style="fill:none;stroke:#000000;stroke-dasharray:1.5,2.475;stroke-dashoffset:0;stroke-width:1.5;"/>
   </g>
   <g id="line2d_27">
    <path clip-path="url(#p1097c2687a)" d="M 590.680785 109.663909 
L 590.680785 -1 
" style="fill:none;stroke:#000000;stroke-dasharray:1.5,2.475;stroke-dashoffset:0;stroke-width:1.5;"/>
   </g>
   <g id="line2d_28">
    <path clip-path="url(#p1097c2687a)" d="M 592.410124 109.663909 
L 592.410124 -1 
" style="fill:none;stroke:#000000;stroke-dasharray:1.5,2.475;stroke-dashoffset:0;stroke-width:1.5;"/>
   </g>
   <g id="line2d_29">
    <path clip-path="url(#p1097c2687a)" d="M 688.100207 629.224536 
L 688.100207 194.964907 
" style="fill:none;stroke:#000000;stroke-dasharray:1.5,2.475;stroke-dashoffset:0;stroke-width:1.5;"/>
   </g>
   <g id="line2d_30">
    <path clip-path="url(#p1097c2687a)" d="M 690.940586 629.224536 
L 690.940586 194.964907 
" style="fill:none;stroke:#000000;stroke-dasharray:1.5,2.475;stroke-dashoffset:0;stroke-width:1.5;"/>
   </g>
   <g id="line2d_31">
    <path clip-path="url(#p1097c2687a)" d="M 688.100207 109.663909 
L 688.100207 -1 
" style="fill:none;stroke:#000000;stroke-dasharray:1.5,2.475;stroke-dashoffset:0;stroke-width:1.5;"/>
   </g>
   <g id="line2d_32">
    <path clip-path="url(#p1097c2687a)" d="M 690.940586 109.663909 
L 690.940586 -1 
" style="fill:none;stroke:#000000;stroke-dasharray:1.5,2.475;stroke-dashoffset:0;stroke-width:1.5;"/>
   </g>
   <g id="line2d_33">
    <path clip-path="url(#p1097c2687a)" style="fill:none;stroke:#000000;stroke-dasharray:1.5,2.475;stroke-dashoffset:0;stroke-width:1.5;"/>
   </g>
   <g id="line2d_34">
    <path clip-path="url(#p1097c2687a)" d="M 272.307925 630 
L 272.307925 86.4 
" style="fill:none;stroke:#000000;stroke-dasharray:1.5,2.475;stroke-dashoffset:0;stroke-width:1.5;"/>
   </g>
   <g id="line2d_35">
    <path clip-path="url(#p1097c2687a)" d="M 404.488636 630 
L 404.488636 86.4 
" style="fill:none;stroke:#000000;stroke-dasharray:1.5,2.475;stroke-dashoffset:0;stroke-width:1.5;"/>
   </g>
   <g id="line2d_36">
    <path clip-path="url(#p1097c2687a)" d="M 563.58781 630 
L 563.58781 86.4 
" style="fill:none;stroke:#000000;stroke-dasharray:1.5,2.475;stroke-dashoffset:0;stroke-width:1.5;"/>
   </g>
   <g id="line2d_37">
    <path clip-path="url(#p1097c2687a)" d="M 798.641283 630 
L 798.641283 86.4 
" style="fill:none;stroke:#000000;stroke-dasharray:1.5,2.475;stroke-dashoffset:0;stroke-width:1.5;"/>
   </g>
   <g id="line2d_38">
    <path clip-path="url(#p1097c2687a)" d="M 954.706612 630 
L 954.706612 86.4 
" style="fill:none;stroke:#000000;stroke-dasharray:1.5,2.475;stroke-dashoffset:0;stroke-width:1.5;"/>
   </g>
   <g id="line2d_39">
    <path clip-path="url(#p1097c2687a)" d="M -1 86.4 
L 961.623967 86.4 
" style="fill:none;stroke:#000000;stroke-linecap:square;stroke-width:4;"/>
   </g>
   <g id="line2d_40">
    <path clip-path="url(#p1097c2687a)" d="M -1 629.224536 
L 961.623967 629.224536 
" style="fill:none;stroke:#000000;stroke-linecap:square;stroke-width:3;"/>
   </g>
   <g id="patch_5">
    <path d="M 135 630 
L 135 86.4 
" style="fill:none;stroke:#000000;stroke-linecap:square;stroke-linejoin:miter;stroke-width:0.8;"/>
   </g>
   <g id="patch_6">
    <path d="M 135 630 
L 972 630 
" style="fill:none;"/>
   </g>
   <g id="patch_7">
    <path d="M 135 86.4 
L 972 86.4 
" style="fill:none;"/>
   </g>
   <g id="text_27">
    <!-- Alun Jones -->
    <g style="opacity:0.6;" transform="translate(647.56538 165.938051)rotate(-90)scale(0.1 -0.1)">
     <use xlink:href="#DejaVuSans-41"/>
     <use x="68.408203" xlink:href="#DejaVuSans-6c"/>
     <use x="96.191406" xlink:href="#DejaVuSans-75"/>
     <use x="159.570312" xlink:href="#DejaVuSans-6e"/>
     <use x="222.949219" xlink:href="#DejaVuSans-20"/>
     <use x="254.736328" xlink:href="#DejaVuSans-4a"/>
     <use x="284.228516" xlink:href="#DejaVuSans-6f"/>
     <use x="345.410156" xlink:href="#DejaVuSans-6e"/>
     <use x="408.789062" xlink:href="#DejaVuSans-65"/>
     <use x="470.3125" xlink:href="#DejaVuSans-73"/>
    </g>
   </g>
   <g id="text_28">
    <!-- WW I -->
    <defs>
     <path d="M 3.328125 72.90625 
L 13.28125 72.90625 
L 28.609375 11.28125 
L 43.890625 72.90625 
L 54.984375 72.90625 
L 70.3125 11.28125 
L 85.59375 72.90625 
L 95.609375 72.90625 
L 77.296875 0 
L 64.890625 0 
L 49.515625 63.28125 
L 33.984375 0 
L 21.578125 0 
z
" id="DejaVuSans-57"/>
     <path d="M 9.8125 72.90625 
L 19.671875 72.90625 
L 19.671875 0 
L 9.8125 0 
z
" id="DejaVuSans-49"/>
    </defs>
    <g transform="translate(254.376508 154.460681)rotate(-90)scale(0.16 -0.16)">
     <use xlink:href="#DejaVuSans-57"/>
     <use x="98.876953" xlink:href="#DejaVuSans-57"/>
     <use x="197.753906" xlink:href="#DejaVuSans-20"/>
     <use x="229.541016" xlink:href="#DejaVuSans-49"/>
    </g>
   </g>
   <g id="text_29">
    <!-- WW II -->
    <g transform="translate(434.227748 159.180681)rotate(-90)scale(0.16 -0.16)">
     <use xlink:href="#DejaVuSans-57"/>
     <use x="98.876953" xlink:href="#DejaVuSans-57"/>
     <use x="197.753906" xlink:href="#DejaVuSans-20"/>
     <use x="229.541016" xlink:href="#DejaVuSans-49"/>
     <use x="259.033203" xlink:href="#DejaVuSans-49"/>
    </g>
   </g>
   <g id="text_30">
    <!-- R. J. Fifield -->
    <defs>
     <path d="M 37.109375 75.984375 
L 37.109375 68.5 
L 28.515625 68.5 
Q 23.6875 68.5 21.796875 66.546875 
Q 19.921875 64.59375 19.921875 59.515625 
L 19.921875 54.6875 
L 34.71875 54.6875 
L 34.71875 47.703125 
L 19.921875 47.703125 
L 19.921875 0 
L 10.890625 0 
L 10.890625 47.703125 
L 2.296875 47.703125 
L 2.296875 54.6875 
L 10.890625 54.6875 
L 10.890625 58.5 
Q 10.890625 67.625 15.140625 71.796875 
Q 19.390625 75.984375 28.609375 75.984375 
z
" id="DejaVuSans-66"/>
    </defs>
    <g style="opacity:0.6;" transform="translate(595.685214 166.400551)rotate(-90)scale(0.1 -0.1)">
     <use xlink:href="#DejaVuSans-52"/>
     <use x="69.435547" xlink:href="#DejaVuSans-2e"/>
     <use x="101.222656" xlink:href="#DejaVuSans-20"/>
     <use x="133.009766" xlink:href="#DejaVuSans-4a"/>
     <use x="162.501953" xlink:href="#DejaVuSans-2e"/>
     <use x="194.289062" xlink:href="#DejaVuSans-20"/>
     <use x="226.076172" xlink:href="#DejaVuSans-46"/>
     <use x="283.486328" xlink:href="#DejaVuSans-69"/>
     <use x="311.269531" xlink:href="#DejaVuSans-66"/>
     <use x="346.474609" xlink:href="#DejaVuSans-69"/>
     <use x="374.257812" xlink:href="#DejaVuSans-65"/>
     <use x="435.78125" xlink:href="#DejaVuSans-6c"/>
     <use x="463.564453" xlink:href="#DejaVuSans-64"/>
    </g>
   </g>
   <g id="text_31">
    <!-- Peter Newmark -->
    <defs>
     <path d="M 4.203125 54.6875 
L 13.1875 54.6875 
L 24.421875 12.015625 
L 35.59375 54.6875 
L 46.1875 54.6875 
L 57.421875 12.015625 
L 68.609375 54.6875 
L 77.59375 54.6875 
L 63.28125 0 
L 52.6875 0 
L 40.921875 44.828125 
L 29.109375 0 
L 18.5 0 
z
" id="DejaVuSans-77"/>
    </defs>
    <g style="opacity:0.6;" transform="translate(692.52819 190.820863)rotate(-90)scale(0.1 -0.1)">
     <use xlink:href="#DejaVuSans-50"/>
     <use x="60.255859" xlink:href="#DejaVuSans-65"/>
     <use x="121.779297" xlink:href="#DejaVuSans-74"/>
     <use x="160.988281" xlink:href="#DejaVuSans-65"/>
     <use x="222.511719" xlink:href="#DejaVuSans-72"/>
     <use x="263.625" xlink:href="#DejaVuSans-20"/>
     <use x="295.412109" xlink:href="#DejaVuSans-4e"/>
     <use x="370.216797" xlink:href="#DejaVuSans-65"/>
     <use x="431.740234" xlink:href="#DejaVuSans-77"/>
     <use x="513.527344" xlink:href="#DejaVuSans-6d"/>
     <use x="610.939453" xlink:href="#DejaVuSans-61"/>
     <use x="672.21875" xlink:href="#DejaVuSans-72"/>
     <use x="713.332031" xlink:href="#DejaVuSans-6b"/>
    </g>
   </g>
  </g>
 </g>
 <defs>
  <clipPath id="p1097c2687a">
   <rect height="543.6" width="837" x="135" y="86.4"/>
  </clipPath>
 </defs>
</svg>
